<?xml version="1.0" encoding="UTF-8" standalone="no"?>
<!-- Generator: Adobe Illustrator 27.5.0, SVG Export Plug-In . SVG Version: 6.00 Build 0)  -->

<svg
   version="1.1"
   x="0px"
   y="0px"
   viewBox="0 0 948 423"
   xml:space="preserve"
   id="svg58"
   sodipodi:docname="bottom.svg"
   inkscape:version="1.3.2 (091e20e, 2023-11-25)"
   width="948"
   height="423"
   xmlns:inkscape="http://www.inkscape.org/namespaces/inkscape"
   xmlns:sodipodi="http://sodipodi.sourceforge.net/DTD/sodipodi-0.dtd"
   xmlns:xlink="http://www.w3.org/1999/xlink"
   xmlns="http://www.w3.org/2000/svg"
   xmlns:svg="http://www.w3.org/2000/svg"><defs
   id="defs58">
	

		<defs
   id="defs1">
			<rect
   id="SVGID_1_"
   width="752"
   height="423"
   x="0"
   y="0" />
		</defs>
		<clipPath
   id="SVGID_00000129186441618515793110000010375839872262253997_">
			<use
   xlink:href="#SVGID_1_"
   style="overflow:visible"
   id="use1" />
		</clipPath>
		
		
		
		
		
		
		
		
		
	
			
				
			
		<clipPath
   clipPathUnits="userSpaceOnUse"
   id="clipPath58"><g
     id="g59"><use
       xlink:href="#SVGID_1_"
       style="overflow:visible"
       id="use59" /></g></clipPath><clipPath
   clipPathUnits="userSpaceOnUse"
   id="clipPath59"><g
     id="g60"
     transform="rotate(44.258571)"><use
       xlink:href="#SVGID_1_"
       style="overflow:visible"
       id="use60" /></g></clipPath>
			
		<clipPath
   clipPathUnits="userSpaceOnUse"
   id="clipPath61"><g
     id="g62"><use
       xlink:href="#SVGID_1_"
       style="overflow:visible"
       id="use62" /></g></clipPath>
			
			
		<clipPath
   clipPathUnits="userSpaceOnUse"
   id="clipPath75"><g
     id="g76"><use
       xlink:href="#SVGID_1_"
       style="overflow:visible"
       id="use76" /></g></clipPath><clipPath
   clipPathUnits="userSpaceOnUse"
   id="clipPath76"><g
     id="g77"><use
       xlink:href="#SVGID_1_"
       style="overflow:visible"
       id="use77" /></g></clipPath>
			
			
			
		<clipPath
   clipPathUnits="userSpaceOnUse"
   id="clipPath78"><g
     id="g79"><use
       xlink:href="#SVGID_1_"
       style="overflow:visible"
       id="use79" /></g></clipPath><clipPath
   clipPathUnits="userSpaceOnUse"
   id="clipPath79"><g
     id="g80"><use
       xlink:href="#SVGID_1_"
       style="overflow:visible"
       id="use80" /></g></clipPath><clipPath
   clipPathUnits="userSpaceOnUse"
   id="clipPath80"><g
     id="g81"><use
       xlink:href="#SVGID_1_"
       style="overflow:visible"
       id="use81" /></g></clipPath>
			
			
		<clipPath
   clipPathUnits="userSpaceOnUse"
   id="clipPath82"><g
     id="g83"><use
       xlink:href="#SVGID_1_"
       style="overflow:visible"
       id="use83" /></g></clipPath><clipPath
   clipPathUnits="userSpaceOnUse"
   id="clipPath83"><g
     id="g84"><use
       xlink:href="#SVGID_1_"
       style="overflow:visible"
       id="use84" /></g></clipPath>
			
			
		<clipPath
   clipPathUnits="userSpaceOnUse"
   id="clipPath85"><g
     id="g86"><use
       xlink:href="#SVGID_1_"
       style="overflow:visible"
       id="use86" /></g></clipPath><clipPath
   clipPathUnits="userSpaceOnUse"
   id="clipPath86"><g
     id="g87"><use
       xlink:href="#SVGID_1_"
       style="overflow:visible"
       id="use87" /></g></clipPath>
			
		
				
				
				
			<clipPath
   clipPathUnits="userSpaceOnUse"
   id="clipPath90"><g
     id="g92"><g
       id="g91"><use
         xlink:href="#SVGID_1_"
         style="overflow:visible"
         id="use90" /></g></g></clipPath><clipPath
   clipPathUnits="userSpaceOnUse"
   id="clipPath92"><g
     id="g94"><g
       id="g93"><use
         xlink:href="#SVGID_1_"
         style="overflow:visible"
         id="use92" /></g></g></clipPath><clipPath
   clipPathUnits="userSpaceOnUse"
   id="clipPath94"><g
     id="g96"><g
       id="g95"><use
         xlink:href="#SVGID_1_"
         style="overflow:visible"
         id="use94" /></g></g></clipPath></defs><sodipodi:namedview
   id="namedview58"
   pagecolor="#505050"
   bordercolor="#eeeeee"
   borderopacity="1"
   inkscape:showpageshadow="0"
   inkscape:pageopacity="0"
   inkscape:pagecheckerboard="0"
   inkscape:deskcolor="#505050"
   inkscape:zoom="0.44351244"
   inkscape:cx="525.35167"
   inkscape:cy="392.3227"
   inkscape:window-width="1440"
   inkscape:window-height="847"
   inkscape:window-x="0"
   inkscape:window-y="25"
   inkscape:window-maximized="0"
   inkscape:current-layer="svg58" />


			
		
			
		
			
		
			
		
			
		
			
		<path
   d="M 0,0 V 423 H 948 V 0 Z"
   style="fill:#c3bdad"
   id="path16" /><path
   d="m 948,210.53125 c -85.08482,0 -154.06055,68.97668 -154.06055,154.0625 0,85.08582 68.97573,154.06055 154.06055,154.06055 v -30.03125 c -68.49986,0 -124.03125,-55.53044 -124.03125,-124.0293 0,-68.50186 55.53139,-124.03125 124.03125,-124.03125 z"
   style="fill:#e8464d"
   id="path94" /><path
   d="m 948,270.5957 c -51.9129,0 -93.99609,42.08415 -93.99609,93.99805 0,51.9129 42.08219,93.99609 93.99609,93.99609 v -18.32226 c -41.79392,0 -75.67383,-33.87991 -75.67383,-75.67383 0,-41.79392 33.87991,-75.67578 75.67383,-75.67578 z"
   style=""
   id="path95" /><path
   d="m 181.85547,197.51562 c -53.96689,0 -97.712892,43.749 -97.712892,97.7129 L 84.140625,423 h 97.804685 c 1.956,-52.2439 44.9032,-94.00391 97.6211,-94.00391 v -33.76757 c 0,-53.9639 -43.74406,-97.71289 -97.71094,-97.7129 z"
   style="fill:#e8464d"
   id="path103" /><path
   d="m 279.56641,328.99609 c -52.7169,0 -95.6651,41.76001 -97.6211,94.00391 h 97.6211 z"
   style="fill:#d1cec7"
   id="path102" /><path
   d="m 512.16211,0 v 123.91211 c 0,47.1129 -38.19183,85.30469 -85.30274,85.30469 v 29.47851 c 0,47.10992 38.18984,85.30274 85.30274,85.30274 47.1139,-10e-4 85.30469,-38.19282 85.30469,-85.30274 V 0 Z"
   style="fill:#31425e"
   id="path65" /><path
   d="m 341.55664,0 v 123.91211 c 0,47.1129 38.19179,85.30469 85.30469,85.30469 V 0 Z"
   style="fill:#d1cec7"
   id="path63" /><path
   d="m 426.85937,0 v 209.21484 c 47.11091,0 85.30469,-38.18983 85.30469,-85.30273 V 0 Z"
   style=""
   id="path64" /><path
   d="m 594.74805,69.191406 a 66.53923,67.255226 45.741429 0 0 -42.88477,19.097656 66.53923,67.255226 45.741429 0 0 -1.73047,94.593748 66.53923,67.255226 45.741429 0 0 94.60547,0.7168 66.53923,67.255226 45.741429 0 0 1.73047,-94.591798 66.53923,67.255226 45.741429 0 0 -51.7207,-19.816406 z"
   style="fill:#d1cec7"
   id="path66" /><path
   d="m 597.91992,69.130859 0.76367,133.642581 c 16.58798,-0.27 33.17071,-6.61204 46.05469,-19.16602 26.60294,-25.92394 27.37938,-68.2738 1.73242,-94.593748 C 633.24674,75.442698 615.57888,68.840861 597.91992,69.130859 Z"
   style="fill:#fd931a"
   id="path67" /><path
   d="m 89.550781,16.828125 -149.875,0.21875 0.154297,107.123045 149.875,-0.21679 c 29.583972,-0.043 53.527372,-24.05666 53.484372,-53.64063 -0.042,-29.57897 -24.0547,-53.527375 -53.638669,-53.484375 z"
   style="fill:#fd931a"
   id="path15" /><path
   d="m 98.449219,96.03125 c -4.724991,0 -8.556641,3.82865 -8.556641,8.55664 0,4.72799 3.83165,8.55664 8.556641,8.55664 4.726991,0 8.558591,-3.82865 8.558591,-8.55664 0,-4.72699 -3.8306,-8.55664 -8.558591,-8.55664 z"
   style="fill:#e8464d"
   id="path62" /><path
   d="m 74.332031,96.03125 c -4.72799,0 -8.560547,3.82865 -8.560547,8.55664 0,4.72799 3.832557,8.55664 8.560547,8.55664 4.724991,0 8.556641,-3.82865 8.556641,-8.55664 0,-4.72699 -3.83165,-8.55664 -8.556641,-8.55664 z"
   style="fill:#e8464d"
   id="path61" /><path
   d="m 50.210937,96.03125 c -4.72499,0 -8.558593,3.82865 -8.558593,8.55664 0,4.72799 3.833603,8.55664 8.558593,8.55664 4.727991,0 8.558594,-3.82865 8.558594,-8.55664 0,-4.72699 -3.830603,-8.55664 -8.558594,-8.55664 z"
   style="fill:#e8464d"
   id="path60" /><path
   d="m 26.09375,96.03125 c -4.727995,0 -8.560547,3.828645 -8.560547,8.55664 0,4.728 3.832552,8.55664 8.560547,8.55664 4.724995,0 8.556641,-3.82864 8.556641,-8.55664 0,-4.726995 -3.831646,-8.55664 -8.556641,-8.55664 z"
   style="fill:#e8464d"
   id="path59" /><path
   d="m 98.449219,130.14062 c -4.724991,0 -8.556641,3.82966 -8.556641,8.55665 0,4.72799 3.83165,8.55764 8.556641,8.55664 4.726991,0 8.558591,-3.82865 8.558591,-8.55664 0,-4.72699 -3.8306,-8.55665 -8.558591,-8.55665 z"
   style=""
   id="path58" /><path
   d="m 74.332031,130.14062 c -4.72799,0 -8.560547,3.82966 -8.560547,8.55665 0,4.72799 3.832557,8.55764 8.560547,8.55664 4.724991,0 8.556641,-3.82865 8.556641,-8.55664 0,-4.72699 -3.83165,-8.55665 -8.556641,-8.55665 z"
   style=""
   id="path57" /><path
   d="m 50.210937,130.14062 c -4.72499,0 -8.558593,3.82966 -8.558593,8.55665 0,4.72799 3.833603,8.55764 8.558593,8.55664 4.727991,0 8.558594,-3.82865 8.558594,-8.55664 0,-4.72699 -3.830603,-8.55665 -8.558594,-8.55665 z"
   style=""
   id="path56" /><path
   d="m 26.09375,130.14062 c -4.727995,0 -8.560547,3.82965 -8.560547,8.55665 0,4.72799 3.832552,8.55764 8.560547,8.55664 4.724995,0 8.556641,-3.82865 8.556641,-8.55664 0,-4.727 -3.831646,-8.55665 -8.556641,-8.55665 z"
   style=""
   id="path55" /><path
   d="m 98.449219,164.25 c -4.724991,0 -8.556641,3.82965 -8.556641,8.55664 0,4.72799 3.83165,8.55664 8.556641,8.55664 4.726991,0 8.558591,-3.82865 8.558591,-8.55664 0,-4.72699 -3.8306,-8.55664 -8.558591,-8.55664 z"
   style=""
   id="path28" /><path
   d="m 74.332031,164.25 c -4.72799,0 -8.560547,3.82965 -8.560547,8.55664 0,4.72799 3.832557,8.55664 8.560547,8.55664 4.724991,0 8.556641,-3.82865 8.556641,-8.55664 0,-4.72699 -3.83165,-8.55664 -8.556641,-8.55664 z"
   style=""
   id="path27" /><path
   d="m 50.210937,164.25 c -4.72499,0 -8.558593,3.82965 -8.558593,8.55664 0,4.72799 3.833603,8.55664 8.558593,8.55664 4.727991,0 8.558594,-3.82865 8.558594,-8.55664 0,-4.72699 -3.830603,-8.55664 -8.558594,-8.55664 z"
   style=""
   id="path26" /><path
   d="m 26.09375,164.25 c -4.727995,0 -8.560547,3.82965 -8.560547,8.55664 0,4.728 3.832552,8.55664 8.560547,8.55664 4.724995,0 8.556641,-3.82864 8.556641,-8.55664 0,-4.72699 -3.831646,-8.55664 -8.556641,-8.55664 z"
   style=""
   id="path25" /><path
   d="M 667.28516,349.01953 V 423 h 56.85546 v -73.98047 z"
   style=""
   id="path99" /><path
   d="m 667.28516,312.63477 v 24.55859 h 56.85546 v -24.55859 z"
   style=""
   id="path98" /><path
   d="m 667.28516,276.16992 v 24.56055 h 56.85546 v -24.56055 z"
   style=""
   id="path97" /><path
   d="m 667.28516,253.16016 v 12.27929 h 56.85546 v -12.27929 z"
   style=""
   id="path96" /><path
   d="m 798.19531,32.277344 c -4.25199,0 -7.70117,3.447227 -7.70117,7.699218 0,4.252992 3.44818,7.705079 7.70117,7.705079 4.25299,0 7.70117,-3.452087 7.70117,-7.705079 0,-4.251991 -3.44818,-7.699218 -7.70117,-7.699218 z"
   style="fill:#fd931a"
   id="path93" /><path
   d="m 819.89648,32.277344 c -4.25199,0 -7.70117,3.447227 -7.70117,7.699218 0,4.252992 3.44818,7.705079 7.70117,7.705079 4.249,0 7.69727,-3.452087 7.69727,-7.705079 0,-4.251991 -3.44727,-7.699218 -7.69727,-7.699218 z"
   style="fill:#fd931a"
   id="path92" /><path
   d="m 841.59766,32.277344 c -4.255,0 -7.70313,3.447227 -7.70313,7.699218 0,4.252992 3.44713,7.705079 7.70313,7.705079 4.25199,0 7.69726,-3.452087 7.69726,-7.705079 0,-4.251991 -3.44527,-7.699218 -7.69726,-7.699218 z"
   style="fill:#fd931a"
   id="path91" /><path
   d="m 798.19531,55.728516 c -4.25199,0 -7.70117,3.44518 -7.70117,7.701171 0,4.251992 3.44818,7.697266 7.70117,7.697266 4.25299,0 7.70117,-3.445274 7.70117,-7.697266 0,-4.255991 -3.44818,-7.700171 -7.70117,-7.701171 z"
   style="fill:#fd931a"
   id="path90" /><path
   d="m 819.89648,55.728516 c -4.25199,0 -7.70117,3.44518 -7.70117,7.701171 0,4.251992 3.44818,7.697266 7.70117,7.697266 4.249,0 7.69727,-3.445274 7.69727,-7.697266 0,-4.255991 -3.44727,-7.700171 -7.69727,-7.701171 z"
   style="fill:#fd931a"
   id="path89" /><path
   d="m 841.59766,55.728516 c -4.255,0 -7.70313,3.44518 -7.70313,7.701171 0,4.251992 3.44713,7.697266 7.70313,7.697266 4.25199,0 7.69726,-3.445274 7.69726,-7.697266 0,-4.255991 -3.44527,-7.700171 -7.69726,-7.701171 z"
   style="fill:#fd931a"
   id="path88" /><path
   d="m 798.19531,79.175781 c -4.25199,0 -7.70117,3.448181 -7.70117,7.701172 0,4.251992 3.44818,7.701172 7.70117,7.701172 4.25299,0 7.70117,-3.44918 7.70117,-7.701172 0,-4.252991 -3.44818,-7.700172 -7.70117,-7.701172 z"
   style="fill:#fd931a"
   id="path87" /><path
   d="m 819.89648,79.175781 c -4.25199,0 -7.70117,3.448181 -7.70117,7.701172 0,4.251992 3.44818,7.701172 7.70117,7.701172 4.249,0 7.69727,-3.44918 7.69727,-7.701172 0,-4.252991 -3.44727,-7.700172 -7.69727,-7.701172 z"
   style="fill:#fd931a"
   id="path86" /><path
   d="m 841.59766,79.175781 c -4.255,0 -7.70313,3.448181 -7.70313,7.701172 0,4.251992 3.44713,7.701172 7.70313,7.701172 4.25199,0 7.69726,-3.44918 7.69726,-7.701172 0,-4.252991 -3.44527,-7.700172 -7.69726,-7.701172 z"
   style="fill:#fd931a"
   id="path85" /><path
   d="m 863.29297,79.175781 c -4.25299,0 -7.69727,3.448181 -7.69727,7.701172 0,4.251992 3.44428,7.701172 7.69727,7.701172 4.25299,0 7.70117,-3.44918 7.70117,-7.701172 0,-4.252991 -3.44718,-7.700172 -7.70117,-7.701172 z"
   style="fill:#fd931a"
   id="path84" /><path
   d="m 884.99414,79.175781 c -4.25199,0 -7.69922,3.448181 -7.69922,7.701172 0,4.251992 3.44623,7.701172 7.69922,7.701172 4.25299,0 7.70117,-3.44918 7.70117,-7.701172 0,-4.252991 -3.44818,-7.700172 -7.70117,-7.701172 z"
   style="fill:#fd931a"
   id="path83" /><path
   d="m 906.69141,79.175781 c -4.249,0 -7.69727,3.448181 -7.69727,7.701172 0,4.251992 3.44727,7.701172 7.69727,7.701172 4.25199,0 7.70312,-3.44918 7.70312,-7.701172 0,-4.252991 -3.45113,-7.700172 -7.70312,-7.701172 z"
   style="fill:#fd931a"
   id="path82" /><path
   d="m 798.19531,102.62891 c -4.25199,0 -7.70117,3.44818 -7.70117,7.70117 0,4.25199 3.44818,7.70117 7.70117,7.70117 4.25299,0 7.70117,-3.44918 7.70117,-7.70117 0,-4.25299 -3.44818,-7.70117 -7.70117,-7.70117 z"
   style="fill:#fd931a"
   id="path81" /><path
   d="m 819.89648,102.62891 c -4.25199,0 -7.70117,3.44818 -7.70117,7.70117 0,4.25199 3.44818,7.70117 7.70117,7.70117 4.249,0 7.69727,-3.44918 7.69727,-7.70117 0,-4.25299 -3.44727,-7.70117 -7.69727,-7.70117 z"
   style="fill:#fd931a"
   id="path80" /><path
   d="m 841.59766,102.62891 c -4.255,0 -7.70313,3.44818 -7.70313,7.70117 0,4.25199 3.44713,7.70117 7.70313,7.70117 4.25199,0 7.69726,-3.44918 7.69726,-7.70117 0,-4.25299 -3.44527,-7.70117 -7.69726,-7.70117 z"
   style="fill:#fd931a"
   id="path79" /><path
   d="m 863.29297,102.62891 c -4.25299,0 -7.69727,3.44818 -7.69727,7.70117 0,4.25199 3.44428,7.70117 7.69727,7.70117 4.25299,0 7.70117,-3.44918 7.70117,-7.70117 0,-4.25299 -3.44718,-7.70117 -7.70117,-7.70117 z"
   style="fill:#fd931a"
   id="path78" /><path
   d="m 884.99414,102.62891 c -4.25199,0 -7.69922,3.44818 -7.69922,7.70117 0,4.25199 3.44623,7.70117 7.69922,7.70117 4.25299,0 7.70117,-3.44918 7.70117,-7.70117 0,-4.25299 -3.44818,-7.70117 -7.70117,-7.70117 z"
   style="fill:#fd931a"
   id="path77" /><path
   d="m 906.69141,102.62891 c -4.249,0 -7.69727,3.44818 -7.69727,7.70117 0,4.25199 3.44727,7.70117 7.69727,7.70117 4.25199,0 7.70312,-3.44918 7.70312,-7.70117 0,-4.25299 -3.45113,-7.70117 -7.70312,-7.70117 z"
   style="fill:#fd931a"
   id="path76" /><path
   d="m 841.59766,126.08008 c -4.255,0 -7.70313,3.44413 -7.70313,7.70312 0,4.24599 3.44713,7.69336 7.70313,7.69336 4.25199,0 7.69726,-3.44737 7.69726,-7.69336 0,-4.25899 -3.44527,-7.70412 -7.69726,-7.70312 z"
   style="fill:#fd931a"
   id="path75" /><path
   d="m 863.29297,126.08008 c -4.25299,0 -7.69727,3.44413 -7.69727,7.70312 0,4.24599 3.44428,7.69336 7.69727,7.69336 4.25299,0 7.70117,-3.44737 7.70117,-7.69336 0,-4.25899 -3.44718,-7.70412 -7.70117,-7.70312 z"
   style="fill:#fd931a"
   id="path74" /><path
   d="m 884.99414,126.08008 c -4.25199,0 -7.69922,3.44413 -7.69922,7.70312 0,4.24599 3.44623,7.69336 7.69922,7.69336 4.25299,0 7.70117,-3.44737 7.70117,-7.69336 0,-4.25899 -3.44818,-7.70412 -7.70117,-7.70312 z"
   style="fill:#fd931a"
   id="path73" /><path
   d="m 906.69141,126.08008 c -4.249,0 -7.69727,3.44413 -7.69727,7.70312 0,4.24599 3.44727,7.69336 7.69727,7.69336 4.25199,0 7.70312,-3.44737 7.70312,-7.69336 0,-4.25899 -3.45113,-7.70412 -7.70312,-7.70312 z"
   style="fill:#fd931a"
   id="path72" /><path
   d="m 841.59766,149.5332 c -4.255,0 -7.70313,3.44332 -7.70313,7.69532 0,4.25299 3.44713,7.70117 7.70313,7.70117 4.25199,0 7.69726,-3.44818 7.69726,-7.70117 0,-4.252 -3.44527,-7.69532 -7.69726,-7.69532 z"
   style="fill:#fd931a"
   id="path71" /><path
   d="m 863.29297,149.5332 c -4.25299,0 -7.69727,3.44332 -7.69727,7.69532 0,4.25299 3.44428,7.70117 7.69727,7.70117 4.25299,0 7.70117,-3.44818 7.70117,-7.70117 0,-4.252 -3.44718,-7.69532 -7.70117,-7.69532 z"
   style="fill:#fd931a"
   id="path70" /><path
   d="m 884.99414,149.5332 c -4.25199,0 -7.69922,3.44332 -7.69922,7.69532 0,4.25299 3.44623,7.70117 7.69922,7.70117 4.25299,0 7.70117,-3.44818 7.70117,-7.70117 0,-4.252 -3.44818,-7.69532 -7.70117,-7.69532 z"
   style="fill:#fd931a"
   id="path69" /><path
   d="m 906.69141,149.5332 c -4.249,0 -7.69727,3.44332 -7.69727,7.69532 0,4.25299 3.44727,7.70117 7.69727,7.70117 4.25199,0 7.70312,-3.44818 7.70312,-7.70117 0,-4.252 -3.45113,-7.69532 -7.70312,-7.69532 z"
   style="fill:#fd931a"
   id="path68" /><path
   d="m 246.33984,383.93555 v 9.74804 h 246.97461 v -9.74804 z"
   style="fill:#d1cec7"
   id="path100" /><path
   d="m 246.33984,383.93555 v 9.74804 h 33.31836 v -9.74804 z"
   style=""
   id="path101" />
			
		
</svg>
