<?xml version="1.0" encoding="UTF-8" standalone="no"?>
<!-- Generator: Adobe Illustrator 27.5.0, SVG Export Plug-In . SVG Version: 6.00 Build 0)  -->

<svg
   version="1.1"
   x="0px"
   y="0px"
   viewBox="0 0 752 423"
   style="enable-background:new 0 0 752 423;"
   xml:space="preserve"
   id="svg58"
   sodipodi:docname="10423742_4459658.svg"
   inkscape:version="1.3.2 (091e20e, 2023-11-25)"
   xmlns:inkscape="http://www.inkscape.org/namespaces/inkscape"
   xmlns:sodipodi="http://sodipodi.sourceforge.net/DTD/sodipodi-0.dtd"
   xmlns:xlink="http://www.w3.org/1999/xlink"
   xmlns="http://www.w3.org/2000/svg"
   xmlns:svg="http://www.w3.org/2000/svg"><defs
   id="defs58">
	

		<defs
   id="defs1">
			<rect
   id="SVGID_1_"
   width="752"
   height="423"
   x="0"
   y="0" />
		</defs>
		<clipPath
   id="SVGID_00000129186441618515793110000010375839872262253997_">
			<use
   xlink:href="#SVGID_1_"
   style="overflow:visible"
   id="use1" />
		</clipPath>
		
		
		
		
		
		
		
		
		
	
			
				
			
		<clipPath
   clipPathUnits="userSpaceOnUse"
   id="clipPath58"><g
     id="g59"><use
       xlink:href="#SVGID_1_"
       style="overflow:visible"
       id="use59" /></g></clipPath><clipPath
   clipPathUnits="userSpaceOnUse"
   id="clipPath59"><g
     id="g60"
     transform="rotate(44.258571)"><use
       xlink:href="#SVGID_1_"
       style="overflow:visible"
       id="use60" /></g></clipPath>
			
		<clipPath
   clipPathUnits="userSpaceOnUse"
   id="clipPath61"><g
     id="g62"><use
       xlink:href="#SVGID_1_"
       style="overflow:visible"
       id="use62" /></g></clipPath>
			
			
		<clipPath
   clipPathUnits="userSpaceOnUse"
   id="clipPath75"><g
     id="g76"><use
       xlink:href="#SVGID_1_"
       style="overflow:visible"
       id="use76" /></g></clipPath><clipPath
   clipPathUnits="userSpaceOnUse"
   id="clipPath76"><g
     id="g77"><use
       xlink:href="#SVGID_1_"
       style="overflow:visible"
       id="use77" /></g></clipPath>
			
			
			
		<clipPath
   clipPathUnits="userSpaceOnUse"
   id="clipPath78"><g
     id="g79"><use
       xlink:href="#SVGID_1_"
       style="overflow:visible"
       id="use79" /></g></clipPath><clipPath
   clipPathUnits="userSpaceOnUse"
   id="clipPath79"><g
     id="g80"><use
       xlink:href="#SVGID_1_"
       style="overflow:visible"
       id="use80" /></g></clipPath><clipPath
   clipPathUnits="userSpaceOnUse"
   id="clipPath80"><g
     id="g81"><use
       xlink:href="#SVGID_1_"
       style="overflow:visible"
       id="use81" /></g></clipPath>
			
			
		<clipPath
   clipPathUnits="userSpaceOnUse"
   id="clipPath82"><g
     id="g83"><use
       xlink:href="#SVGID_1_"
       style="overflow:visible"
       id="use83" /></g></clipPath><clipPath
   clipPathUnits="userSpaceOnUse"
   id="clipPath83"><g
     id="g84"><use
       xlink:href="#SVGID_1_"
       style="overflow:visible"
       id="use84" /></g></clipPath>
			
			
		<clipPath
   clipPathUnits="userSpaceOnUse"
   id="clipPath85"><g
     id="g86"><use
       xlink:href="#SVGID_1_"
       style="overflow:visible"
       id="use86" /></g></clipPath><clipPath
   clipPathUnits="userSpaceOnUse"
   id="clipPath86"><g
     id="g87"><use
       xlink:href="#SVGID_1_"
       style="overflow:visible"
       id="use87" /></g></clipPath>
			
		
				
				
				
			<clipPath
   clipPathUnits="userSpaceOnUse"
   id="clipPath90"><g
     id="g92"><g
       id="g91"><use
         xlink:href="#SVGID_1_"
         style="overflow:visible"
         id="use90" /></g></g></clipPath><clipPath
   clipPathUnits="userSpaceOnUse"
   id="clipPath92"><g
     id="g94"><g
       id="g93"><use
         xlink:href="#SVGID_1_"
         style="overflow:visible"
         id="use92" /></g></g></clipPath><clipPath
   clipPathUnits="userSpaceOnUse"
   id="clipPath94"><g
     id="g96"><g
       id="g95"><use
         xlink:href="#SVGID_1_"
         style="overflow:visible"
         id="use94" /></g></g></clipPath></defs><sodipodi:namedview
   id="namedview58"
   pagecolor="#505050"
   bordercolor="#eeeeee"
   borderopacity="1"
   inkscape:showpageshadow="0"
   inkscape:pageopacity="0"
   inkscape:pagecheckerboard="0"
   inkscape:deskcolor="#505050"
   inkscape:zoom="0.76881051"
   inkscape:cx="378.50679"
   inkscape:cy="117.06396"
   inkscape:window-width="1440"
   inkscape:window-height="847"
   inkscape:window-x="0"
   inkscape:window-y="25"
   inkscape:window-maximized="0"
   inkscape:current-layer="svg58" />


			
		
			
		
			
		
			
		
			
		
			
		<g
   id="g98"><g
     id="BACKGROUND"
     style="fill:#c3bdad;fill-opacity:1">
	<rect
   style="fill:#c3bdad;fill-opacity:1"
   width="752"
   height="423"
   id="rect1" />
</g><path
     style="fill:#e8464d;fill-opacity:1"
     d="M 627.969,364.593 C 627.969,296.091 683.5,240.562 752,240.562 v -30.03 c -85.085,0 -154.061,68.975 -154.061,154.061 0,85.086 68.976,154.061 154.061,154.061 v -30.03 c -68.5,0 -124.031,-55.532 -124.031,-124.031 z"
     id="path1"
     clip-path="url(#clipPath83)" /><path
     style="fill:#000000;fill-opacity:1"
     d="m 676.327,364.593 c 0,-41.794 33.879,-75.675 75.673,-75.675 v -18.322 c -51.913,0 -93.997,42.083 -93.997,93.997 0,51.913 42.083,93.997 93.997,93.997 v -18.322 c -41.794,0 -75.673,-33.881 -75.673,-75.675 z"
     id="path2"
     clip-path="url(#clipPath82)" /><path
     style="fill:#e8464d;fill-opacity:1"
     d="m 149.946,423 c 1.956,-52.244 44.903,-94.004 97.621,-94.004 v -33.768 c 0,-53.964 -43.744,-97.713 -97.711,-97.713 -53.967,0 -97.713,43.749 -97.713,97.713 L 52.14,423 Z"
     id="path3"
     clip-path="url(#clipPath76)" /><path
     style="fill:#d1cec7;fill-opacity:1"
     d="m 247.567,423 v -94.004 c -52.717,0 -95.665,41.76 -97.621,94.004 z"
     id="path4"
     clip-path="url(#clipPath75)" /><path
     style="fill:#31425e;fill-opacity:1"
     d="M 489.467,238.695 V 0 h -85.304 v 123.912 c 0,47.113 -38.193,85.304 -85.304,85.304 v 29.48 c 0,47.11 38.191,85.303 85.304,85.303 47.114,-0.001 85.304,-38.194 85.304,-85.304 z"
     id="path5"
     clip-path="url(#clipPath80)" /><path
     style="fill:#d1cec7;fill-opacity:1"
     d="m 233.557,0 v 123.912 c 0,47.113 38.191,85.304 85.304,85.304 V 0 Z"
     id="path6"
     clip-path="url(#clipPath79)" /><path
     style="fill:#000000;fill-opacity:1"
     d="M 404.164,123.912 V 0 H 318.86 v 209.215 c 47.111,0 85.304,-38.19 85.304,-85.303 z"
     id="path7"
     clip-path="url(#clipPath78)" /><ellipse
     transform="rotate(-44.258571)"
     style="fill:#d1cec7;stroke-width:1;fill-opacity:1"
     cx="256.27643"
     cy="439.54291"
     rx="67.255226"
     ry="66.53923"
     id="ellipse7"
     clip-path="url(#clipPath59)" /><path
     style="fill:#fd931a;fill-opacity:1"
     d="M 538.47,89.014 C 525.246,75.443 507.579,68.84 489.92,69.13 l 0.764,133.643 c 16.588,-0.27 33.171,-6.612 46.055,-19.166 26.603,-25.924 27.378,-68.273 1.731,-94.593 z"
     id="path8"
     clip-path="url(#clipPath58)" /><g
     clip-path="url(#SVGID_00000129186441618515793110000010375839872262253997_)"
     id="g11"
     style="fill:#fd931a;fill-opacity:1">
			<g
   id="g10"
   style="fill:#fd931a;fill-opacity:1">
				<g
   id="g9"
   style="fill:#fd931a;fill-opacity:1">
					<path
   style="fill:#fd931a;fill-opacity:1"
   d="m 89.551,16.829 -149.875,0.217 0.155,107.124 149.875,-0.217 C 119.29,123.91 143.233,99.897 143.19,70.313 143.148,40.734 119.135,16.786 89.551,16.829 Z"
   id="path9" />
				</g>
			</g>
		</g><g
     id="g17"
     clip-path="url(#clipPath94)"
     style="fill:#e8464d;fill-opacity:1">
					<g
   id="g16"
   style="fill:#e8464d;fill-opacity:1">
						<g
   id="g12"
   style="fill:#e8464d;fill-opacity:1">
							<path
   style="fill:#e8464d;fill-opacity:1"
   d="m 89.892,104.588 c 0,-4.728 3.832,-8.557 8.557,-8.557 4.728,0 8.559,3.83 8.559,8.557 0,4.728 -3.832,8.557 -8.559,8.557 -4.725,0 -8.557,-3.829 -8.557,-8.557 z"
   id="path11" />
						</g>
						<g
   id="g13"
   style="fill:#e8464d;fill-opacity:1">
							<path
   style="fill:#e8464d;fill-opacity:1"
   d="m 65.772,104.588 c 0,-4.728 3.832,-8.557 8.56,-8.557 4.725,0 8.557,3.83 8.557,8.557 0,4.728 -3.832,8.557 -8.557,8.557 -4.728,0 -8.56,-3.829 -8.56,-8.557 z"
   id="path12" />
						</g>
						<g
   id="g14"
   style="fill:#e8464d;fill-opacity:1">
							<path
   style="fill:#e8464d;fill-opacity:1"
   d="m 41.653,104.588 c 0,-4.728 3.832,-8.557 8.557,-8.557 4.728,0 8.56,3.83 8.56,8.557 0,4.728 -3.832,8.557 -8.56,8.557 -4.725,0 -8.557,-3.829 -8.557,-8.557 z"
   id="path13" />
						</g>
						<g
   id="g15"
   style="fill:#e8464d;fill-opacity:1">
							<path
   style="fill:#e8464d;fill-opacity:1"
   d="m 17.534,104.588 c 0,-4.728 3.832,-8.557 8.56,-8.557 4.725,0 8.557,3.83 8.557,8.557 0,4.728 -3.832,8.557 -8.557,8.557 -4.728,0 -8.56,-3.829 -8.56,-8.557 z"
   id="path14" />
						</g>
					</g>
				</g><g
     id="g20"
     clip-path="url(#clipPath92)"
     style="fill:#000000;fill-opacity:1.0">
					<path
   style="fill:#000000;fill-opacity:1.0"
   d="m 89.892,138.697 c 0,-4.727 3.832,-8.557 8.557,-8.557 4.728,0 8.559,3.83 8.559,8.557 0,4.728 -3.832,8.557 -8.559,8.557 -4.725,0.001 -8.557,-3.829 -8.557,-8.557 z"
   id="path17" />
					<path
   style="fill:#000000;fill-opacity:1.0"
   d="m 65.772,138.697 c 0,-4.727 3.832,-8.557 8.56,-8.557 4.725,0 8.557,3.83 8.557,8.557 0,4.728 -3.832,8.557 -8.557,8.557 -4.728,0.001 -8.56,-3.829 -8.56,-8.557 z"
   id="path18" />
					<path
   style="fill:#000000;fill-opacity:1.0"
   d="m 41.653,138.697 c 0,-4.727 3.832,-8.557 8.557,-8.557 4.728,0 8.56,3.83 8.56,8.557 0,4.728 -3.832,8.557 -8.56,8.557 -4.725,0.001 -8.557,-3.829 -8.557,-8.557 z"
   id="path19" />
					<path
   style="fill:#000000;fill-opacity:1.0"
   d="m 17.534,138.697 c 0,-4.727 3.832,-8.557 8.56,-8.557 4.725,0 8.557,3.83 8.557,8.557 0,4.728 -3.832,8.557 -8.557,8.557 -4.728,0.001 -8.56,-3.829 -8.56,-8.557 z"
   id="path20" />
				</g><g
     id="g24"
     clip-path="url(#clipPath90)"
     style="fill:#000000;fill-opacity:1.0">
					<path
   style="fill:#000000;fill-opacity:1.0"
   d="m 89.892,172.807 c 0,-4.727 3.832,-8.557 8.557,-8.557 4.728,0 8.559,3.83 8.559,8.557 0,4.728 -3.832,8.557 -8.559,8.557 -4.725,0 -8.557,-3.829 -8.557,-8.557 z"
   id="path21" />
					<path
   style="fill:#000000;fill-opacity:1.0"
   d="m 65.772,172.807 c 0,-4.727 3.832,-8.557 8.56,-8.557 4.725,0 8.557,3.83 8.557,8.557 0,4.728 -3.832,8.557 -8.557,8.557 -4.728,0 -8.56,-3.829 -8.56,-8.557 z"
   id="path22" />
					<path
   style="fill:#000000;fill-opacity:1.0"
   d="m 41.653,172.807 c 0,-4.727 3.832,-8.557 8.557,-8.557 4.728,0 8.56,3.83 8.56,8.557 0,4.728 -3.832,8.557 -8.56,8.557 -4.725,0 -8.557,-3.829 -8.557,-8.557 z"
   id="path23" />
					<path
   style="fill:#000000;fill-opacity:1.0"
   d="m 17.534,172.807 c 0,-4.727 3.832,-8.557 8.56,-8.557 4.725,0 8.557,3.83 8.557,8.557 0,4.728 -3.832,8.557 -8.557,8.557 -4.728,0 -8.56,-3.829 -8.56,-8.557 z"
   id="path24" />
				</g><g
     clip-path="url(#SVGID_00000129186441618515793110000010375839872262253997_)"
     id="g29"
     style="fill:#000000;fill-opacity:1">
			<rect
   x="519.28601"
   y="349.01901"
   style="fill:#000000;fill-opacity:1"
   width="56.854"
   height="73.981003"
   id="rect26" />
			<rect
   x="519.28601"
   y="312.63501"
   style="fill:#000000;fill-opacity:1"
   width="56.854"
   height="24.559"
   id="rect27" />
			<rect
   x="519.28601"
   y="276.16901"
   style="fill:#000000;fill-opacity:1"
   width="56.854"
   height="24.561001"
   id="rect28" />
			<rect
   x="519.28601"
   y="253.16"
   style="fill:#000000;fill-opacity:1"
   width="56.854"
   height="12.28"
   id="rect29" />
		</g><g
     id="g55"
     clip-path="url(#clipPath61)"
     style="fill:#fd931a;fill-opacity:1">
				<g
   id="g31"
   style="fill:#fd931a;fill-opacity:1">
					<path
   style="fill:#fd931a;fill-opacity:1"
   d="m 635.896,14.638 c 0,4.253 -3.448,7.704 -7.701,7.704 -4.253,0 -7.7,-3.451 -7.7,-7.704 0,-4.252 3.448,-7.7 7.7,-7.7 4.253,0 7.701,3.448 7.701,7.7 z"
   id="path29" />
					<path
   style="fill:#fd931a;fill-opacity:1"
   d="m 657.593,14.638 c 0,4.253 -3.448,7.704 -7.697,7.704 -4.253,0 -7.7,-3.451 -7.7,-7.704 0,-4.252 3.448,-7.7 7.7,-7.7 4.25,0 7.697,3.448 7.697,7.7 z"
   id="path30" />
					<path
   style="fill:#fd931a;fill-opacity:1"
   d="m 679.294,14.638 c 0,4.253 -3.445,7.704 -7.697,7.704 -4.256,0 -7.703,-3.451 -7.703,-7.704 0,-4.252 3.448,-7.7 7.703,-7.7 4.252,0 7.697,3.448 7.697,7.7 z"
   id="path31" />
				</g>
				<g
   id="g34"
   style="fill:#fd931a;fill-opacity:1">
					<path
   style="fill:#fd931a;fill-opacity:1"
   d="m 635.896,38.091 c 0,4.252 -3.448,7.697 -7.701,7.697 -4.253,0 -7.7,-3.445 -7.7,-7.697 0,-4.256 3.448,-7.701 7.7,-7.701 4.253,10e-4 7.701,3.445 7.701,7.701 z"
   id="path32" />
					<path
   style="fill:#fd931a;fill-opacity:1"
   d="m 657.593,38.091 c 0,4.252 -3.448,7.697 -7.697,7.697 -4.253,0 -7.7,-3.445 -7.7,-7.697 0,-4.256 3.448,-7.701 7.7,-7.701 4.25,10e-4 7.697,3.445 7.697,7.701 z"
   id="path33" />
					<path
   style="fill:#fd931a;fill-opacity:1"
   d="m 679.294,38.091 c 0,4.252 -3.445,7.697 -7.697,7.697 -4.256,0 -7.703,-3.445 -7.703,-7.697 0,-4.256 3.448,-7.701 7.703,-7.701 4.252,10e-4 7.697,3.445 7.697,7.701 z"
   id="path34" />
				</g>
				<g
   id="g40"
   style="fill:#fd931a;fill-opacity:1">
					<path
   style="fill:#fd931a;fill-opacity:1"
   d="m 635.896,61.538 c 0,4.252 -3.448,7.7 -7.701,7.7 -4.253,0 -7.7,-3.448 -7.7,-7.7 0,-4.253 3.448,-7.701 7.7,-7.701 4.253,10e-4 7.701,3.448 7.701,7.701 z"
   id="path35" />
					<path
   style="fill:#fd931a;fill-opacity:1"
   d="m 657.593,61.538 c 0,4.252 -3.448,7.7 -7.697,7.7 -4.253,0 -7.7,-3.448 -7.7,-7.7 0,-4.253 3.448,-7.701 7.7,-7.701 4.25,10e-4 7.697,3.448 7.697,7.701 z"
   id="path36" />
					<path
   style="fill:#fd931a;fill-opacity:1"
   d="m 679.294,61.538 c 0,4.252 -3.445,7.7 -7.697,7.7 -4.256,0 -7.703,-3.448 -7.703,-7.7 0,-4.253 3.448,-7.701 7.703,-7.701 4.252,10e-4 7.697,3.448 7.697,7.701 z"
   id="path37" />
					<path
   style="fill:#fd931a;fill-opacity:1"
   d="m 700.994,61.538 c 0,4.252 -3.448,7.7 -7.701,7.7 -4.253,0 -7.697,-3.448 -7.697,-7.7 0,-4.253 3.444,-7.701 7.697,-7.701 4.254,10e-4 7.701,3.448 7.701,7.701 z"
   id="path38" />
					<path
   style="fill:#fd931a;fill-opacity:1"
   d="m 722.695,61.538 c 0,4.252 -3.448,7.7 -7.701,7.7 -4.253,0 -7.7,-3.448 -7.7,-7.7 0,-4.253 3.448,-7.701 7.7,-7.701 4.253,10e-4 7.701,3.448 7.701,7.701 z"
   id="path39" />
					<path
   style="fill:#fd931a;fill-opacity:1"
   d="m 744.395,61.538 c 0,4.252 -3.451,7.7 -7.703,7.7 -4.25,0 -7.697,-3.448 -7.697,-7.7 0,-4.253 3.448,-7.701 7.697,-7.701 4.252,10e-4 7.703,3.448 7.703,7.701 z"
   id="path40" />
				</g>
				<g
   id="g46"
   style="fill:#fd931a;fill-opacity:1">
					<path
   style="fill:#fd931a;fill-opacity:1"
   d="m 635.896,84.991 c 0,4.252 -3.448,7.7 -7.701,7.7 -4.253,0 -7.7,-3.448 -7.7,-7.7 0,-4.253 3.448,-7.701 7.7,-7.701 4.253,0 7.701,3.448 7.701,7.701 z"
   id="path41" />
					<path
   style="fill:#fd931a;fill-opacity:1"
   d="m 657.593,84.991 c 0,4.252 -3.448,7.7 -7.697,7.7 -4.253,0 -7.7,-3.448 -7.7,-7.7 0,-4.253 3.448,-7.701 7.7,-7.701 4.25,0 7.697,3.448 7.697,7.701 z"
   id="path42" />
					<path
   style="fill:#fd931a;fill-opacity:1"
   d="m 679.294,84.991 c 0,4.252 -3.445,7.7 -7.697,7.7 -4.256,0 -7.703,-3.448 -7.703,-7.7 0,-4.253 3.448,-7.701 7.703,-7.701 4.252,0 7.697,3.448 7.697,7.701 z"
   id="path43" />
					<path
   style="fill:#fd931a;fill-opacity:1"
   d="m 700.994,84.991 c 0,4.252 -3.448,7.7 -7.701,7.7 -4.253,0 -7.697,-3.448 -7.697,-7.7 0,-4.253 3.444,-7.701 7.697,-7.701 4.254,0 7.701,3.448 7.701,7.701 z"
   id="path44" />
					<path
   style="fill:#fd931a;fill-opacity:1"
   d="m 722.695,84.991 c 0,4.252 -3.448,7.7 -7.701,7.7 -4.253,0 -7.7,-3.448 -7.7,-7.7 0,-4.253 3.448,-7.701 7.7,-7.701 4.253,0 7.701,3.448 7.701,7.701 z"
   id="path45" />
					<path
   style="fill:#fd931a;fill-opacity:1"
   d="m 744.395,84.991 c 0,4.252 -3.451,7.7 -7.703,7.7 -4.25,0 -7.697,-3.448 -7.697,-7.7 0,-4.253 3.448,-7.701 7.697,-7.701 4.252,0 7.703,3.448 7.703,7.701 z"
   id="path46" />
				</g>
				<g
   id="g50"
   style="fill:#fd931a;fill-opacity:1">
					<path
   style="fill:#fd931a;fill-opacity:1"
   d="m 679.294,108.444 c 0,4.246 -3.445,7.694 -7.697,7.694 -4.256,0 -7.703,-3.448 -7.703,-7.694 0,-4.259 3.448,-7.703 7.703,-7.703 4.252,-0.001 7.697,3.444 7.697,7.703 z"
   id="path47" />
					<path
   style="fill:#fd931a;fill-opacity:1"
   d="m 700.994,108.444 c 0,4.246 -3.448,7.694 -7.701,7.694 -4.253,0 -7.697,-3.448 -7.697,-7.694 0,-4.259 3.444,-7.703 7.697,-7.703 4.254,-0.001 7.701,3.444 7.701,7.703 z"
   id="path48" />
					<path
   style="fill:#fd931a;fill-opacity:1"
   d="m 722.695,108.444 c 0,4.246 -3.448,7.694 -7.701,7.694 -4.253,0 -7.7,-3.448 -7.7,-7.694 0,-4.259 3.448,-7.703 7.7,-7.703 4.253,-0.001 7.701,3.444 7.701,7.703 z"
   id="path49" />
					<path
   style="fill:#fd931a;fill-opacity:1"
   d="m 744.395,108.444 c 0,4.246 -3.451,7.694 -7.703,7.694 -4.25,0 -7.697,-3.448 -7.697,-7.694 0,-4.259 3.448,-7.703 7.697,-7.703 4.252,-0.001 7.703,3.444 7.703,7.703 z"
   id="path50" />
				</g>
				<g
   id="g54"
   style="fill:#fd931a;fill-opacity:1">
					<path
   style="fill:#fd931a;fill-opacity:1"
   d="m 679.294,131.89 c 0,4.253 -3.445,7.701 -7.697,7.701 -4.256,0 -7.703,-3.448 -7.703,-7.701 0,-4.252 3.448,-7.697 7.703,-7.697 4.252,0 7.697,3.445 7.697,7.697 z"
   id="path51" />
					<path
   style="fill:#fd931a;fill-opacity:1"
   d="m 700.994,131.89 c 0,4.253 -3.448,7.701 -7.701,7.701 -4.253,0 -7.697,-3.448 -7.697,-7.701 0,-4.252 3.444,-7.697 7.697,-7.697 4.254,0 7.701,3.445 7.701,7.697 z"
   id="path52" />
					<path
   style="fill:#fd931a;fill-opacity:1"
   d="m 722.695,131.89 c 0,4.253 -3.448,7.701 -7.701,7.701 -4.253,0 -7.7,-3.448 -7.7,-7.701 0,-4.252 3.448,-7.697 7.7,-7.697 4.253,0 7.701,3.445 7.701,7.697 z"
   id="path53" />
					<path
   style="fill:#fd931a;fill-opacity:1"
   d="m 744.395,131.89 c 0,4.253 -3.451,7.701 -7.703,7.701 -4.25,0 -7.697,-3.448 -7.697,-7.701 0,-4.252 3.448,-7.697 7.697,-7.697 4.252,0 7.703,3.445 7.703,7.697 z"
   id="path54" />
				</g>
			</g><rect
     x="214.339"
     y="383.935"
     style="fill:#d1cec7;fill-opacity:1"
     width="246.976"
     height="9.7489996"
     id="rect56"
     clip-path="url(#clipPath86)" /><rect
     x="214.339"
     y="383.935"
     style="fill:#000000;fill-opacity:1"
     width="33.319"
     height="9.7489996"
     id="rect57"
     clip-path="url(#clipPath85)" /></g>
			
		
</svg>
