<?xml version="1.0" encoding="UTF-8" standalone="no"?>
<!-- Created with Inkscape (http://www.inkscape.org/) -->

<svg
   width="200"
   height="120"
   viewBox="0 0 52.916665 31.75"
   version="1.1"
   id="svg1"
   inkscape:version="1.3.2 (091e20e, 2023-11-25)"
   sodipodi:docname="logo.svg"
   xmlns:inkscape="http://www.inkscape.org/namespaces/inkscape"
   xmlns:sodipodi="http://sodipodi.sourceforge.net/DTD/sodipodi-0.dtd"
   xmlns="http://www.w3.org/2000/svg"
   xmlns:svg="http://www.w3.org/2000/svg">
  <sodipodi:namedview
     id="namedview1"
     pagecolor="#505050"
     bordercolor="#eeeeee"
     borderopacity="1"
     inkscape:showpageshadow="0"
     inkscape:pageopacity="0"
     inkscape:pagecheckerboard="0"
     inkscape:deskcolor="#505050"
     inkscape:document-units="mm"
     inkscape:zoom="1.22996"
     inkscape:cx="130.89857"
     inkscape:cy="130.08554"
     inkscape:window-width="1440"
     inkscape:window-height="773"
     inkscape:window-x="0"
     inkscape:window-y="25"
     inkscape:window-maximized="0"
     inkscape:current-layer="layer1" />
  <defs
     id="defs1">
    <clipPath
       clipPathUnits="userSpaceOnUse"
       id="clipPath4016">
      <path
         d="M -15,-15 H 256 V 171 H -15 Z"
         clip-rule="evenodd"
         id="path4016" />
    </clipPath>
    <clipPath
       clipPathUnits="userSpaceOnUse"
       id="clipPath4014">
      <path
         d="M -15,-15 H 256 V 171 H -15 Z"
         clip-rule="evenodd"
         id="path4014" />
    </clipPath>
    <clipPath
       clipPathUnits="userSpaceOnUse"
       id="clipPath8">
      <path
         d="M -15,-15 H 256 V 171 H -15 Z"
         clip-rule="evenodd"
         id="path8" />
    </clipPath>
    <clipPath
       clipPathUnits="userSpaceOnUse"
       id="clipPath6-2">
      <path
         d="M -15,-15 H 256 V 171 H -15 Z"
         clip-rule="evenodd"
         id="path6-7" />
    </clipPath>
    <clipPath
       clipPathUnits="userSpaceOnUse"
       id="clipPath8-0">
      <path
         d="M -15,-15 H 256 V 171 H -15 Z"
         clip-rule="evenodd"
         id="path8-3" />
    </clipPath>
    <clipPath
       clipPathUnits="userSpaceOnUse"
       id="clipPath4014-9">
      <path
         d="M -15,-15 H 256 V 171 H -15 Z"
         clip-rule="evenodd"
         id="path4014-9" />
    </clipPath>
    <clipPath
       clipPathUnits="userSpaceOnUse"
       id="clipPath4016-91">
      <path
         d="M -15,-15 H 256 V 171 H -15 Z"
         clip-rule="evenodd"
         id="path4016-72" />
    </clipPath>
  </defs>
  <g
     inkscape:label="Calque 1"
     inkscape:groupmode="layer"
     id="layer1">
    <path
       id="path5-6"
       d="m 19.6835,103.1238 h -3.0178 l -0.7727,-2.0256 h -1.5559 l 3.1643,7.9679 h 1.3343 L 22,101.0982 h -1.5435 z m -1.5211,4.0267 c -0.2846,-0.8297 -0.5369,-1.5254 -0.7565,-2.0846 l -0.2705,-0.722 h 2.0784 l -0.2704,0.72 c -0.2197,0.5632 -0.4717,1.2588 -0.7566,2.0866 z m 10.7601,1.9156 v -0.7911 l -4.2645,-5.9565 h 4.3194 v -1.2203 h -6.2617 v 0.7849 l 4.2707,5.9627 h -4.165 v 1.2203 z m 11.0469,-4.9175 h -1.7876 v 1.2203 h 3.2519 v -4.0227 c -0.1202,-0.0448 -0.2704,-0.0893 -0.4555,-0.1383 -0.1851,-0.0468 -0.3906,-0.0893 -0.6202,-0.1281 -0.2279,-0.0386 -0.4638,-0.0689 -0.7058,-0.0913 -0.2421,-0.0247 -0.4819,-0.0368 -0.72,-0.0368 -0.7158,0 -1.3403,0.0958 -1.8729,0.2888 -0.5349,0.1933 -0.9782,0.4638 -1.3343,0.8135 -0.3557,0.3498 -0.6222,0.7668 -0.799,1.2487 -0.1769,0.4839 -0.2645,1.0168 -0.2645,1.6004 0,0.4131 0.0468,0.8074 0.1403,1.1838 0.0935,0.3762 0.2319,0.724 0.413,1.0431 0.1809,0.3192 0.4025,0.6081 0.6608,0.8663 0.2582,0.2583 0.5553,0.4799 0.8866,0.663 0.3317,0.1812 0.6937,0.3215 1.0902,0.419 0.3946,0.0975 0.8195,0.1466 1.2711,0.1466 0.4005,0 0.7829,-0.0287 1.1449,-0.0857 0.36,-0.0569 0.6568,-0.1281 0.8867,-0.2094 v -1.2303 c -0.3093,0.0956 -0.6222,0.1687 -0.9374,0.2177 -0.3152,0.0508 -0.6347,0.0751 -0.9559,0.0751 -0.4334,0 -0.8379,-0.0652 -1.2163,-0.1933 -0.3782,-0.1301 -0.7036,-0.3211 -0.9802,-0.5734 -0.2764,-0.252 -0.4941,-0.5633 -0.6529,-0.9335 -0.1584,-0.3679 -0.2378,-0.7971 -0.2378,-1.2812 0.004,-0.9414 0.25,-1.6492 0.7362,-2.1209 0.4881,-0.47 1.1775,-0.7058 2.0724,-0.7058 0.1667,0 0.3396,0.008 0.5165,0.0263 0.1788,0.0184 0.3356,0.0408 0.4697,0.0692 z m 4.714,-1.8301 h 3.9209 v -1.2203 h -5.385 v 7.9679 h 5.1695 v -1.2203 h -3.7054 v -2.0619 h 3.1827 v -1.2203 h -3.1827 z m 9.3812,1.0715 c 0,0.2016 -0.0487,0.3663 -0.1482,0.4901 -0.0998,0.1262 -0.2339,0.2279 -0.4048,0.3073 -0.1709,0.0814 -0.362,0.1443 -0.5735,0.1953 -0.2114,0.0488 -0.4354,0.0975 -0.667,0.1443 -0.3092,0.0692 -0.606,0.1485 -0.8866,0.2421 -0.2807,0.0935 -0.529,0.2236 -0.7424,0.3883 -0.2135,0.1647 -0.3844,0.3742 -0.5105,0.6285 -0.1282,0.2542 -0.1911,0.5714 -0.1911,0.9538 0,0.421 0.0731,0.7869 0.2217,1.1001 0.1462,0.3113 0.3478,0.5695 0.5998,0.7748 0.2543,0.2035 0.5491,0.356 0.8909,0.4577 0.3396,0.1015 0.7217,0.1526 1.1469,0.1526 0.4249,0 0.8521,-0.0409 1.2813,-0.1242 0.4291,-0.0833 0.7971,-0.1911 1.1083,-0.3215 v -1.2506 c -0.413,0.1627 -0.8096,0.2806 -1.1897,0.354 -0.3784,0.0732 -0.7361,0.1097 -1.0698,0.1097 -0.4799,0 -0.8501,-0.0875 -1.1103,-0.2622 -0.2602,-0.1749 -0.3906,-0.4373 -0.3906,-0.7871 0,-0.2033 0.0428,-0.3702 0.1281,-0.5023 0.0856,-0.1301 0.1993,-0.2379 0.3458,-0.3235 0.1466,-0.0853 0.3152,-0.1545 0.5063,-0.2075 0.1894,-0.0507 0.3906,-0.0975 0.6041,-0.1423 0.3376,-0.0711 0.659,-0.1545 0.964,-0.248 0.307,-0.0916 0.5797,-0.2217 0.8175,-0.3883 0.2359,-0.169 0.4249,-0.3844 0.5633,-0.6529 0.1383,-0.2684 0.2075,-0.6122 0.2075,-1.0289 0,-0.4292 -0.0794,-0.8014 -0.2379,-1.1146 -0.1587,-0.3133 -0.3843,-0.5735 -0.6771,-0.779 -0.2909,-0.2032 -0.6449,-0.3557 -1.0616,-0.4555 -0.419,-0.0995 -0.8745,-0.1485 -1.3709,-0.1485 -0.4331,0 -0.8603,0.0428 -1.2792,0.1281 -0.419,0.0856 -0.7665,0.2055 -1.0452,0.36 v 1.2325 c 0.3946,-0.1709 0.7767,-0.2948 1.1509,-0.3722 0.3722,-0.0774 0.7585,-0.1159 1.1551,-0.1159 0.2299,0 0.4578,0.0184 0.6795,0.0569 0.2217,0.0366 0.4209,0.1018 0.5978,0.1934 0.1769,0.0912 0.3192,0.2154 0.4272,0.3741 0.1077,0.1565 0.1604,0.3498 0.1604,0.5814 z m 6.3961,-2.2918 h -1.4644 v 6.7476 h -2.5744 v 1.2203 h 6.6073 v -1.2203 h -2.5685 z m 3.6893,0 v 7.9679 h 1.4641 v -7.9679 z m 9.2716,3.9901 c 0,0.4861 -0.059,0.909 -0.1789,1.273 -0.1182,0.364 -0.2829,0.667 -0.4944,0.9091 -0.2094,0.242 -0.4594,0.4229 -0.7483,0.5431 -0.2889,0.1199 -0.606,0.1788 -0.9519,0.1788 -0.3455,0 -0.6627,-0.0589 -0.9516,-0.1788 -0.2888,-0.1202 -0.5388,-0.3011 -0.7483,-0.5431 -0.2115,-0.2421 -0.3765,-0.5451 -0.4944,-0.9091 -0.1199,-0.364 -0.1788,-0.7869 -0.1788,-1.273 0,-0.4839 0.0589,-0.9091 0.1788,-1.2731 0.1179,-0.364 0.2829,-0.665 0.4944,-0.9071 0.2095,-0.2398 0.4595,-0.4209 0.7483,-0.5428 0.2889,-0.1202 0.6061,-0.1811 0.9516,-0.1811 0.3459,0 0.663,0.0609 0.9519,0.1811 0.2889,0.1219 0.5389,0.303 0.7483,0.5428 0.2115,0.2421 0.3762,0.5431 0.4944,0.9071 0.1199,0.364 0.1789,0.7892 0.1789,1.2731 z m 1.5131,0 c 0,-0.6081 -0.0856,-1.1654 -0.2585,-1.6716 -0.1726,-0.5066 -0.4269,-0.9437 -0.7586,-1.3077 -0.3313,-0.3662 -0.7381,-0.6508 -1.222,-0.8543 -0.4822,-0.2013 -1.0312,-0.303 -1.6475,-0.303 -0.6159,0 -1.165,0.1017 -1.6472,0.303 -0.4839,0.2035 -0.8906,0.4881 -1.2223,0.8543 -0.3314,0.364 -0.5836,0.8011 -0.7563,1.3077 -0.1729,0.5062 -0.2605,1.0635 -0.2605,1.6716 0,0.608 0.0876,1.1653 0.2605,1.6715 0.1727,0.5066 0.4249,0.9437 0.7563,1.3077 0.3317,0.3662 0.7384,0.6508 1.2223,0.8543 0.4822,0.2013 1.0313,0.3031 1.6472,0.3031 0.6163,0 1.1653,-0.1018 1.6475,-0.3031 0.4839,-0.2035 0.8907,-0.4881 1.222,-0.8543 0.3317,-0.364 0.586,-0.8011 0.7586,-1.3077 0.1729,-0.5062 0.2585,-1.0635 0.2585,-1.6715 z m 5.6982,0.2746 c 0.5715,-0.8155 1.0372,-1.5375 1.3952,-2.1679 h 0.0343 c -0.0467,1.0349 -0.0711,1.7895 -0.0711,2.2635 v 3.6076 h 1.4644 v -7.9679 h -1.5313 l -2.6011,3.6686 c -0.4578,0.6347 -0.9295,1.3708 -1.4196,2.2088 h -0.0346 c 0.0468,-0.9763 0.0712,-1.7329 0.0712,-2.2678 v -3.6096 h -1.4641 v 7.9679 h 1.5313 z"
       style="fill:#ffffff;fill-opacity:1;fill-rule:evenodd;stroke:none"
       transform="matrix(0.72451915,0,0,-0.72451915,-8.9285961,103.84476)"
       clip-path="url(#clipPath6-2)" />
    <path
       id="path7-5"
       d="M 19.6092,103.0158 H 16.74 l -0.7461,-1.9559 -0.0263,-0.0697 H 15.893 14.3371 14.1786 l 0.0584,0.1477 3.1643,7.9679 0.0272,0.0683 h 0.0729 1.3343 0.0731 l 0.0269,-0.0683 3.1643,-7.9679 0.0587,-0.1477 H 22 20.4565 20.3822 l -0.0266,0.0697 z m -2.9435,0.216 h 3.0178 0.0745 l 0.0264,-0.0697 0.7464,-1.9559 h 1.3104 l -3.0784,7.7519 h -1.1886 l -3.0784,-7.7519 h 1.3229 l 0.7461,1.9559 0.0267,0.0697 z m 1.5089,3.6233 c -0.1069,-0.3079 -0.2115,-0.6035 -0.3135,-0.885 -0.1273,-0.3509 -0.246,-0.6656 -0.3549,-0.9434 l -0.2154,-0.5748 h 1.7674 l -0.2157,0.574 c -0.1089,0.2795 -0.2274,0.5953 -0.3541,0.9456 -0.102,0.2815 -0.2069,0.5763 -0.3138,0.8836 z m -0.5159,-0.8119 c 0.121,0.3345 0.2554,0.7161 0.4017,1.1424 l 0.0252,0.0729 h 0.0768 0.0244 0.0771 l 0.025,-0.0729 c 0.1462,-0.4258 0.2806,-0.8062 0.4019,-1.1409 0.1244,-0.3442 0.2424,-0.6585 0.3529,-0.9417 l 6e-4,-10e-4 0.2704,-0.72 0.055,-0.146 h -0.1559 -2.0784 -0.1553 l 0.0544,0.1454 0.2704,0.722 6e-4,0.002 c 0.1103,0.2812 0.2285,0.5944 0.3532,0.9382 z m 11.3718,3.0229 v -0.7911 -0.0349 l -0.0202,-0.0281 -4.142,-5.7855 h 4.1091 0.108 v -0.108 -1.2203 -0.108 h -0.108 -6.2617 -0.108 v 0.108 0.7849 0.0346 l 0.0201,0.0283 4.1483,5.7918 h -3.9547 -0.108 v 0.108 1.2203 0.108 h 0.108 6.1011 0.108 z m -0.216,-0.7563 v 0.6483 h -5.8851 v -1.0043 h 4.057 0.2103 l -0.1224,-0.1709 -4.2506,-5.9346 v -0.6421 h 6.0457 v 1.0043 h -4.2114 -0.21 l 0.1221,0.1709 z m 11.0469,-4.2692 h -1.6796 -0.108 v 0.108 1.2203 0.108 h 0.108 3.2519 0.108 v -0.108 -4.0227 -0.0748 l -0.0706,-0.0261 c -0.0654,-0.0244 -0.1357,-0.0479 -0.21,-0.07 v 6e-4 c -0.0862,-0.0261 -0.1692,-0.0496 -0.2551,-0.0723 l -0.0017,-3e-4 c -0.0913,-0.0227 -0.1902,-0.0456 -0.2977,-0.0677 -0.106,-0.0222 -0.2165,-0.0428 -0.3308,-0.0621 -0.1142,-0.0193 -0.2313,-0.0369 -0.3498,-0.0522 h -2e-4 c -0.1163,-0.015 -0.2379,-0.0283 -0.3632,-0.0399 -0.1247,-0.0125 -0.2477,-0.0224 -0.3665,-0.0284 h -3e-4 c -0.1235,-0.006 -0.2452,-0.009 -0.3636,-0.009 -0.3634,0 -0.7047,0.0246 -1.0214,0.0731 h -2e-4 c -0.317,0.0487 -0.6137,0.1233 -0.8879,0.2225 -0.2746,0.0992 -0.5258,0.2186 -0.7537,0.3575 -0.2287,0.1394 -0.4357,0.2999 -0.6194,0.4804 -0.1834,0.1803 -0.3444,0.3785 -0.4816,0.593 v 3e-4 c -0.1374,0.2152 -0.2525,0.4473 -0.3432,0.6951 v 5e-4 c -0.0905,0.2481 -0.1588,0.5091 -0.2039,0.7821 -0.0447,0.2733 -0.0674,0.5587 -0.0674,0.8549 0,0.421 0.0479,0.8241 0.1437,1.2096 0.0476,0.1919 0.1071,0.377 0.1777,0.5553 h -3e-4 c 0.0701,0.1774 0.1531,0.3501 0.2467,0.5153 0.0924,0.1633 0.1956,0.3189 0.3075,0.4658 0.1137,0.1491 0.2378,0.2908 0.3705,0.4235 0.1318,0.1318 0.2747,0.2554 0.4266,0.369 v 3e-4 c 0.1511,0.1128 0.3132,0.2172 0.4845,0.3118 h 2e-4 c 0.1701,0.093 0.3484,0.1755 0.5335,0.2469 h 6e-4 c 0.1868,0.0717 0.3815,0.1333 0.5819,0.1823 0.2019,0.0499 0.4122,0.0876 0.6279,0.1125 0.2169,0.025 0.4405,0.0375 0.669,0.0375 0.2027,0 0.4014,-0.007 0.5947,-0.0219 0.1905,-0.0139 0.3796,-0.036 0.5667,-0.0655 h 5e-4 c 0.1843,-0.0292 0.3504,-0.0615 0.4958,-0.0958 0.1534,-0.036 0.2905,-0.0759 0.4099,-0.1182 l 0.072,-0.0258 v -0.0759 -1.2303 -0.1462 l -0.1398,0.0433 c -0.1508,0.0465 -0.305,0.0885 -0.4612,0.1245 h -2e-4 c -0.1559,0.0363 -0.3102,0.0666 -0.4607,0.0898 h -5e-4 c -0.1503,0.0241 -0.3053,0.0425 -0.4638,0.055 -0.1576,0.0122 -0.3163,0.0184 -0.4751,0.0184 -0.2123,0 -0.4164,-0.0155 -0.6117,-0.0467 -0.1959,-0.0312 -0.3864,-0.0785 -0.5695,-0.1403 v -3e-4 c -0.1834,-0.063 -0.3537,-0.1406 -0.5088,-0.2316 -0.1556,-0.091 -0.301,-0.1982 -0.434,-0.3195 -0.1326,-0.121 -0.2511,-0.2559 -0.3549,-0.4042 -0.1037,-0.1485 -0.1947,-0.3129 -0.2712,-0.4918 v -3e-4 c -0.076,-0.1766 -0.1336,-0.3688 -0.1715,-0.5732 -0.0383,-0.2066 -0.0576,-0.4288 -0.0576,-0.6655 h -3e-4 c 0.0017,-0.4584 0.0627,-0.8592 0.1812,-1.2011 0.117,-0.3373 0.2914,-0.6185 0.5218,-0.8421 0.2322,-0.2237 0.5139,-0.3924 0.8436,-0.5049 0.3334,-0.1134 0.7183,-0.1706 1.1543,-0.1706 0.085,0 0.1698,0.002 0.2534,0.006 0.0848,0.004 0.1695,0.011 0.252,0.0193 0.0836,0.008 0.1661,0.019 0.2475,0.0306 l 0.1253,0.0201 v 1.6722 z m -1.5716,0.216 h 1.6796 0.108 v -0.108 -1.8689 -0.0873 l -0.0862,-0.0182 c -0.0717,-0.015 -0.1469,-0.0286 -0.2245,-0.0396 -0.0757,-0.0108 -0.1616,-0.0216 -0.256,-0.0312 h -6e-4 c -0.091,-0.009 -0.1791,-0.0162 -0.2627,-0.0204 h -3e-4 c -0.0913,-0.004 -0.18,-0.007 -0.2639,-0.007 -0.4589,0 -0.8669,0.0612 -1.2235,0.1825 -0.36,0.123 -0.6681,0.3079 -0.9235,0.5536 l -5e-4,6e-4 c -0.2552,0.2472 -0.4476,0.557 -0.5758,0.9266 -0.1264,0.3646 -0.191,0.7892 -0.193,1.2711 l -3e-4,3e-4 c 0,0.2474 0.0207,0.4833 0.0615,0.7041 0.0411,0.2219 0.1035,0.4297 0.1851,0.6196 0.0817,0.1908 0.18,0.368 0.2934,0.5301 0.1137,0.1627 0.2427,0.3099 0.3861,0.4405 0.1429,0.1304 0.3002,0.2461 0.4703,0.3456 0.1703,0.0998 0.3534,0.1837 0.5473,0.2503 h 6e-4 c 0.1939,0.0657 0.3963,0.1159 0.6052,0.1491 0.2092,0.0331 0.4249,0.0501 0.6457,0.0501 0.1647,0 0.3291,-0.007 0.4916,-0.0189 h 5e-4 c 0.1576,-0.0122 0.3186,-0.0318 0.4808,-0.0579 0.1624,-0.0252 0.322,-0.0561 0.4759,-0.0921 0.1117,-0.0258 0.2237,-0.055 0.3365,-0.0873 v 1.0083 c -0.0947,0.0309 -0.2001,0.0601 -0.3152,0.087 h -6e-4 c -0.1477,0.0349 -0.3081,0.0663 -0.4799,0.0935 -0.1746,0.0275 -0.358,0.0485 -0.5488,0.0627 h -3e-4 c -0.1882,0.0142 -0.3815,0.0213 -0.5788,0.0213 -0.2222,0 -0.4377,-0.0122 -0.6446,-0.0358 -0.2078,-0.0241 -0.4085,-0.0601 -0.6007,-0.1074 -0.1953,-0.0479 -0.3812,-0.1063 -0.5564,-0.1735 v -3e-4 c -0.1769,-0.068 -0.3461,-0.1468 -0.5077,-0.235 -0.1604,-0.0887 -0.3141,-0.1876 -0.4589,-0.2959 v 3e-4 c -0.1429,-0.1069 -0.2778,-0.2237 -0.4034,-0.3492 -0.1264,-0.1265 -0.2441,-0.2608 -0.3518,-0.402 -0.1068,-0.14 -0.2046,-0.2874 -0.2917,-0.4413 -0.0873,-0.1542 -0.1655,-0.3175 -0.233,-0.4882 h -2e-4 c -0.0669,-0.1683 -0.1234,-0.3447 -0.1687,-0.5275 -0.091,-0.3671 -0.1369,-0.7532 -0.1369,-1.158 0,-0.2868 0.0215,-0.5606 0.064,-0.8203 0.0431,-0.2597 0.1078,-0.5077 0.1934,-0.743 h 2e-4 c 0.0859,-0.2344 0.1939,-0.4524 0.3223,-0.6533 0.129,-0.2013 0.2795,-0.387 0.451,-0.5556 0.1721,-0.169 0.3657,-0.3195 0.5809,-0.4505 0.2162,-0.1318 0.4544,-0.2449 0.7143,-0.3387 h 3e-4 c 0.2579,-0.0933 0.5408,-0.1638 0.8475,-0.2112 0.307,-0.047 0.6367,-0.0708 0.9888,-0.0708 0.1196,0 0.2372,0.003 0.3532,0.009 0.1204,0.006 0.2398,0.0156 0.3563,0.0273 h 8e-4 c 0.1174,0.0107 0.2359,0.024 0.3558,0.0394 0.1151,0.015 0.2296,0.032 0.3418,0.051 0.1151,0.0195 0.2231,0.0397 0.3229,0.0604 h 3e-4 c 0.0978,0.0201 0.1941,0.0422 0.2871,0.0654 v 3e-4 c 0.0984,0.0261 0.1837,0.0499 0.2486,0.0695 l 3e-4,5e-4 c 0.0459,0.0136 0.0882,0.0272 0.1264,0.04 v 3.8387 h -3.0359 v -1.0043 z m 6.5016,-1.8301 h 3.8129 0.108 v -0.108 -1.2203 -0.108 h -0.108 -5.385 -0.108 v 0.108 7.9679 0.108 h 0.108 5.1695 0.108 v -0.108 -1.2203 -0.108 h -0.108 -3.5974 v -1.8459 h 3.0747 0.108 v -0.108 -1.2203 -0.108 h -0.108 -3.0747 z m 3.7049,-0.216 h -3.8129 -0.108 v 0.108 2.2451 0.108 h 0.108 3.0747 v 1.0043 h -3.0747 -0.108 v 0.108 2.0619 0.108 h 0.108 3.5974 v 1.0043 h -4.9535 v -7.7519 h 5.169 z m 5.4603,1.1795 c 0,0.0916 -0.0107,0.1735 -0.032,0.2441 -0.0204,0.0674 -0.0513,0.1275 -0.0921,0.1786 l -6e-4,8e-4 c -0.0434,0.055 -0.0958,0.106 -0.1562,0.1517 -0.0618,0.0467 -0.1321,0.0887 -0.2092,0.1244 l -0.0014,3e-4 c -0.0828,0.0394 -0.1698,0.0743 -0.2597,0.1046 -0.0926,0.0312 -0.1902,0.0589 -0.2905,0.083 l -0.3336,0.0746 v -3e-4 c -0.1219,0.0261 -0.2376,0.051 -0.3311,0.0697 l -0.0023,3e-4 c -0.1616,0.036 -0.3155,0.0737 -0.4592,0.1128 -0.1426,0.0389 -0.2889,0.0828 -0.438,0.1324 h -5e-4 c -0.1446,0.0482 -0.2826,0.1066 -0.4116,0.1741 -0.1298,0.068 -0.2515,0.1454 -0.3623,0.231 -0.1134,0.0876 -0.2163,0.1876 -0.3064,0.2988 -0.0899,0.1102 -0.1687,0.2335 -0.235,0.3673 -0.0686,0.1367 -0.1199,0.2889 -0.1531,0.4556 -0.0329,0.1655 -0.0493,0.3478 -0.0493,0.5459 0,0.216 0.0193,0.4201 0.0575,0.6114 0.0386,0.1925 0.0973,0.3711 0.1747,0.5347 0.0762,0.1618 0.1672,0.3109 0.2712,0.4453 0.1055,0.1363 0.2257,0.2591 0.3581,0.3671 l 5e-4,3e-4 c 0.1327,0.1063 0.2767,0.1998 0.4309,0.2789 0.1533,0.0791 0.3195,0.146 0.4966,0.1981 v 3e-4 c 0.1741,0.0519 0.3606,0.0916 0.5584,0.1176 0.1965,0.0261 0.4034,0.0395 0.6194,0.0395 0.214,0 0.4314,-0.0108 0.6514,-0.0321 0.218,-0.0207 0.4354,-0.0527 0.65,-0.0941 0.2168,-0.0419 0.4198,-0.0907 0.6083,-0.1457 0.1882,-0.0544 0.3626,-0.1159 0.5213,-0.1823 l 0.0666,-0.028 v -0.0715 -1.2506 -0.1585 l -0.1471,0.0582 c -0.2013,0.0793 -0.4017,0.1485 -0.5987,0.2072 -0.195,0.0581 -0.3863,0.1051 -0.572,0.1411 -0.1877,0.0363 -0.3691,0.0635 -0.5417,0.0811 h -6e-4 c -0.1726,0.0176 -0.3424,0.0266 -0.5074,0.0266 -0.231,0 -0.4359,-0.0209 -0.6123,-0.0626 -0.1732,-0.0408 -0.3194,-0.1015 -0.4382,-0.1811 -0.1137,-0.0766 -0.1996,-0.1721 -0.256,-0.286 -0.0572,-0.1157 -0.0864,-0.2535 -0.0864,-0.4116 0,-0.0924 0.0096,-0.1766 0.0286,-0.2512 0.0184,-0.0726 0.0459,-0.1375 0.0816,-0.1925 0.0375,-0.0569 0.0822,-0.1102 0.1336,-0.1584 v -3e-4 c 0.0504,-0.0473 0.1097,-0.0913 0.1763,-0.1301 0.0703,-0.0408 0.1454,-0.078 0.2228,-0.1097 0.0791,-0.032 0.165,-0.0615 0.2568,-0.087 v 2e-4 c 0.0918,-0.0243 0.1888,-0.0487 0.29,-0.0725 0.1068,-0.025 0.2106,-0.0482 0.3084,-0.0686 0.1681,-0.0355 0.3336,-0.0743 0.4941,-0.1154 h 2e-4 c 0.163,-0.0419 0.3229,-0.087 0.4788,-0.1349 v 3e-4 c 0.1571,-0.0468 0.3073,-0.1043 0.4487,-0.1715 0.1409,-0.0669 0.2744,-0.1446 0.3994,-0.2322 l 0.0015,-3e-4 c 0.1236,-0.0884 0.2364,-0.1907 0.3364,-0.3064 0.0998,-0.1151 0.1868,-0.2435 0.2597,-0.3849 0.0734,-0.1423 0.1287,-0.305 0.1652,-0.487 0.036,-0.18 0.0545,-0.3776 0.0545,-0.5913 0,-0.2214 -0.021,-0.4298 -0.0621,-0.6234 -0.0414,-0.1942 -0.1043,-0.375 -0.1877,-0.5397 -0.0836,-0.1653 -0.1853,-0.3169 -0.3035,-0.4527 -0.1183,-0.1363 -0.2549,-0.2588 -0.4077,-0.3659 h -5e-4 c -0.1528,-0.1066 -0.3212,-0.1996 -0.5035,-0.2781 h -3e-4 c -0.1808,-0.0774 -0.3795,-0.1426 -0.5944,-0.1939 l -5e-4,-6e-4 c -0.2124,-0.0501 -0.4357,-0.0881 -0.6696,-0.1136 -0.2333,-0.025 -0.4756,-0.0377 -0.7257,-0.0377 -0.2177,0 -0.4368,0.0113 -0.6553,0.0328 -0.2169,0.0216 -0.4326,0.0545 -0.6455,0.0978 -0.2143,0.0437 -0.411,0.0967 -0.5887,0.1579 -0.18,0.0621 -0.343,0.1335 -0.4873,0.2135 l -0.0556,0.0306 v 0.0635 1.2325 0.1635 l 0.1506,-0.0649 c 0.1919,-0.0827 0.3835,-0.1556 0.5734,-0.2171 0.1882,-0.0609 0.3739,-0.1106 0.5567,-0.1483 0.182,-0.0377 0.368,-0.0663 0.5562,-0.0853 0.1871,-0.0184 0.3801,-0.028 0.5771,-0.028 0.1126,0 0.2254,0.005 0.3371,0.0138 0.1105,0.009 0.2194,0.0236 0.3242,0.0414 h 9e-4 c 0.104,0.017 0.2038,0.0414 0.2979,0.0715 v 2e-4 c 0.0953,0.0309 0.1848,0.0684 0.2679,0.1112 0.0808,0.0416 0.1536,0.091 0.218,0.1471 0.0637,0.0558 0.1204,0.1202 0.1695,0.1919 l 3e-4,6e-4 c 0.0467,0.068 0.0822,0.1454 0.1054,0.2298 0.0235,0.0862 0.0357,0.1832 0.0357,0.2903 z m 0.1738,0.3064 c 0.0283,-0.0935 0.0422,-0.1961 0.0422,-0.3064 0,-0.1241 -0.015,-0.2404 -0.0442,-0.3472 v -3e-4 c -0.0298,-0.1083 -0.0751,-0.2075 -0.1355,-0.2951 -0.0592,-0.0865 -0.1278,-0.1638 -0.2055,-0.2322 -0.0777,-0.068 -0.1653,-0.1272 -0.2611,-0.1766 -0.0944,-0.0484 -0.1947,-0.0907 -0.2996,-0.1247 h -6e-4 c -0.1034,-0.0334 -0.2134,-0.0601 -0.3288,-0.0791 -0.1145,-0.0195 -0.2296,-0.0345 -0.343,-0.0442 h -3e-4 c -0.1165,-0.009 -0.2352,-0.0144 -0.3543,-0.0144 -0.1995,0 -0.3997,0.0102 -0.5981,0.0297 -0.1956,0.0199 -0.3895,0.0496 -0.5785,0.0887 h -3e-4 c -0.1911,0.0397 -0.3847,0.091 -0.5789,0.154 -0.1445,0.0467 -0.2919,0.1009 -0.4422,0.1618 v -1.0063 c 0.1197,-0.0621 0.2526,-0.1185 0.3972,-0.1684 0.1695,-0.0583 0.3568,-0.1088 0.5615,-0.1505 0.2055,-0.0419 0.4139,-0.0737 0.6233,-0.0944 0.2073,-0.0204 0.4193,-0.0311 0.6344,-0.0311 0.2455,0 0.4802,0.0121 0.703,0.036 0.2223,0.024 0.4371,0.0609 0.6435,0.1097 v -3e-4 c 0.2001,0.0476 0.3869,0.1091 0.559,0.1828 0.1712,0.0737 0.3268,0.159 0.4652,0.2557 l -3e-4,3e-4 c 0.1392,0.0975 0.2627,0.2086 0.369,0.3311 v 2e-4 c 0.1075,0.1234 0.1993,0.2603 0.2742,0.4079 0.0745,0.1477 0.1312,0.311 0.1689,0.4876 0.0377,0.1775 0.057,0.3708 0.057,0.5786 0,0.2026 -0.0165,0.386 -0.0493,0.5493 -0.0324,0.1607 -0.0814,0.3047 -0.146,0.4303 -0.0649,0.1264 -0.1426,0.2407 -0.2308,0.3424 -0.0873,0.1012 -0.1879,0.1919 -0.2996,0.2719 l 3e-4,5e-4 c -0.1131,0.0791 -0.2356,0.1503 -0.3671,0.2126 -0.1301,0.0618 -0.2704,0.1154 -0.4187,0.1596 l -8e-4,6e-4 c -0.1514,0.0465 -0.3084,0.0907 -0.47,0.1324 -0.1573,0.0402 -0.3189,0.0785 -0.4842,0.1131 -0.1156,0.0241 -0.2199,0.0473 -0.3135,0.0691 -0.1003,0.0236 -0.1993,0.0485 -0.2962,0.0743 l -0.0011,6e-4 c -0.0984,0.0272 -0.1928,0.0595 -0.2818,0.0958 -0.0907,0.0371 -0.1743,0.0782 -0.25,0.1222 -0.0794,0.0462 -0.1514,0.1 -0.2152,0.1598 h -2e-4 c -0.063,0.059 -0.1188,0.1259 -0.1662,0.1979 l -2e-4,3e-4 c -0.0496,0.0768 -0.0868,0.1627 -0.1106,0.2565 -0.0232,0.0921 -0.0354,0.1942 -0.0354,0.3045 0,0.1913 0.0365,0.3605 0.1091,0.5068 0.0731,0.1482 0.1837,0.2718 0.3297,0.3699 0.1411,0.0947 0.3109,0.1658 0.5079,0.2123 h 6e-4 c 0.1928,0.0454 0.4139,0.0683 0.6616,0.0683 0.1687,0 0.3458,-0.01 0.5295,-0.0283 0.1832,-0.0184 0.3708,-0.0468 0.5604,-0.0833 0.1942,-0.0375 0.3924,-0.0865 0.5936,-0.1463 0.1522,-0.0451 0.3087,-0.0978 0.468,-0.157 v 1.0216 c -0.1338,0.053 -0.2781,0.1026 -0.432,0.1471 -0.18,0.0524 -0.3761,0.0995 -0.5885,0.1406 -0.2123,0.0411 -0.4232,0.072 -0.6301,0.0918 -0.2083,0.0201 -0.419,0.0304 -0.631,0.0304 -0.2086,0 -0.4062,-0.0125 -0.5916,-0.0372 -0.1845,-0.0241 -0.3594,-0.0615 -0.5244,-0.1108 h -6e-4 c -0.1641,-0.0488 -0.3177,-0.1103 -0.4592,-0.1831 -0.1414,-0.0729 -0.2735,-0.1579 -0.394,-0.2549 -0.1199,-0.0978 -0.2285,-0.2086 -0.3234,-0.3313 -0.095,-0.1225 -0.1777,-0.258 -0.2469,-0.4054 v -3e-4 c -0.0706,-0.1491 -0.1239,-0.3112 -0.1588,-0.4847 -0.0348,-0.1743 -0.0524,-0.3645 -0.0524,-0.5695 0,-0.1837 0.015,-0.3518 0.0454,-0.504 0.0297,-0.1497 0.0748,-0.284 0.1338,-0.4014 l 5e-4,-8e-4 c 0.059,-0.1191 0.1293,-0.2288 0.2089,-0.3266 0.08,-0.0986 0.171,-0.1873 0.2707,-0.2642 0.1024,-0.079 0.2132,-0.1496 0.3306,-0.2111 0.1176,-0.0616 0.2452,-0.1154 0.3804,-0.1605 v -3e-4 c 0.1306,-0.0433 0.2744,-0.0861 0.4266,-0.1275 0.1516,-0.0411 0.3016,-0.0783 0.449,-0.1111 0.1301,-0.0261 0.2373,-0.0491 0.3322,-0.0695 l 6e-4,-3e-4 0.3342,-0.0745 0.002,-6e-4 c 0.1094,-0.0264 0.214,-0.0558 0.3112,-0.0887 0.1006,-0.034 0.1956,-0.0717 0.2835,-0.1137 l -3e-4,-3e-4 c 0.0924,-0.0431 0.1755,-0.0924 0.2477,-0.1471 0.0737,-0.0555 0.1389,-0.1193 0.1948,-0.1899 0.0581,-0.0723 0.1015,-0.1568 0.1301,-0.2512 z m 6.3303,-2.7062 h -1.4644 -0.108 v 0.108 6.6396 h -2.4664 -0.108 v 0.108 1.2203 0.108 h 0.108 6.6073 0.108 v -0.108 -1.2203 -0.108 h -0.108 -2.4605 v -6.6396 -0.108 z m -1.3564,0.216 h 1.2484 v 6.6396 0.108 h 0.108 2.4605 v 1.0043 h -6.3913 v -1.0043 h 2.4664 0.108 v -0.108 z m 4.9377,-0.108 v 7.9679 0.108 h 0.108 1.4641 0.108 v -0.108 -7.9679 -0.108 H 65.6141 64.15 64.042 Z m 0.216,7.8599 v -7.7519 h 1.2481 v 7.7519 z m 9.0556,-3.8698 c 0,0.2386 -0.0145,0.4614 -0.0434,0.6675 -0.0286,0.205 -0.0723,0.396 -0.1301,0.572 -0.0575,0.1766 -0.1256,0.3379 -0.2041,0.4822 -0.0782,0.144 -0.1684,0.2747 -0.2687,0.3895 l -3e-4,3e-4 c -0.0987,0.1139 -0.2078,0.2148 -0.3257,0.3002 -0.1179,0.0856 -0.2461,0.1573 -0.3827,0.214 -0.1366,0.0567 -0.2817,0.0995 -0.4331,0.1278 -0.1511,0.0284 -0.3107,0.0425 -0.4774,0.0425 -0.1667,0 -0.3262,-0.0141 -0.4773,-0.0425 -0.1511,-0.0283 -0.2962,-0.0708 -0.4329,-0.1278 -0.1366,-0.0567 -0.2647,-0.1284 -0.3827,-0.214 -0.1179,-0.0854 -0.227,-0.1863 -0.3257,-0.3002 l -2e-4,-3e-4 c -0.1007,-0.1151 -0.1905,-0.2455 -0.269,-0.3898 -0.0789,-0.1448 -0.1472,-0.3055 -0.2039,-0.4813 v -8e-4 c -0.0581,-0.1761 -0.1014,-0.3674 -0.1301,-0.5718 -0.0289,-0.2061 -0.0433,-0.4289 -0.0433,-0.6675 0,-0.2382 0.0144,-0.4615 0.0436,-0.6687 0.0286,-0.2039 0.072,-0.3949 0.1298,-0.5707 v -8e-4 c 0.0567,-0.1758 0.125,-0.3362 0.2039,-0.4805 0.0782,-0.1437 0.1683,-0.2735 0.269,-0.3886 0.0989,-0.1134 0.2083,-0.2135 0.3262,-0.2991 0.1185,-0.0859 0.2461,-0.1579 0.3824,-0.2151 0.1369,-0.057 0.2818,-0.1004 0.4329,-0.129 h 3e-4 c 0.1516,-0.0289 0.3106,-0.0436 0.477,-0.0436 0.1661,0 0.3254,0.0147 0.4765,0.0433 0.1517,0.0289 0.2968,0.0723 0.434,0.1293 0.1364,0.0572 0.2639,0.1292 0.3824,0.2151 0.1179,0.0856 0.2273,0.1857 0.3263,0.2991 0.1006,0.1151 0.1905,0.2449 0.2687,0.3886 0.0785,0.144 0.1466,0.3045 0.2041,0.4811 v 2e-4 c 0.0578,0.1758 0.1012,0.3668 0.1298,0.5707 0.0292,0.2072 0.0437,0.4305 0.0437,0.6687 z m 0.1703,0.697 c 0.0304,-0.2171 0.0457,-0.4496 0.0457,-0.697 0,-0.2469 -0.0153,-0.4802 -0.0459,-0.6982 -0.0307,-0.2183 -0.0769,-0.4215 -0.1384,-0.6086 -0.0606,-0.1868 -0.1343,-0.3592 -0.2205,-0.5171 -0.0859,-0.1578 -0.1848,-0.3007 -0.2954,-0.4271 -0.11,-0.1262 -0.231,-0.237 -0.362,-0.332 -0.1309,-0.0947 -0.2732,-0.1752 -0.4257,-0.2392 l -3e-4,-3e-4 c -0.1517,-0.0629 -0.3113,-0.1108 -0.4771,-0.1423 -0.165,-0.0312 -0.3373,-0.0473 -0.5162,-0.0473 -0.1791,0 -0.3518,0.0161 -0.5173,0.0476 -0.1655,0.0312 -0.3246,0.0791 -0.4757,0.142 l -2e-4,3e-4 c -0.1525,0.064 -0.2948,0.1445 -0.4258,0.2392 -0.131,0.095 -0.252,0.2058 -0.362,0.332 -0.1105,0.1264 -0.2095,0.2693 -0.2956,0.4271 -0.0859,0.1571 -0.1593,0.3294 -0.22,0.5171 h -3e-4 c -0.0615,0.1871 -0.1077,0.3903 -0.1383,0.6086 -0.0306,0.218 -0.0459,0.4513 -0.0459,0.6982 0,0.2474 0.0153,0.4799 0.0456,0.697 0.0306,0.2188 0.0768,0.4224 0.1386,0.6097 h 3e-4 c 0.0607,0.1874 0.1341,0.3606 0.22,0.5179 0.0861,0.1585 0.1848,0.3016 0.2953,0.428 0.11,0.127 0.2308,0.2387 0.362,0.3337 0.1315,0.0955 0.2744,0.1752 0.4263,0.2384 0.1514,0.0629 0.3107,0.11 0.476,0.1409 0.1652,0.0309 0.3382,0.0464 0.517,0.0464 0.1789,0 0.3518,-0.0155 0.5171,-0.0464 0.1655,-0.0309 0.3245,-0.078 0.4762,-0.1409 0.1519,-0.0632 0.2948,-0.1429 0.4263,-0.2384 0.1313,-0.095 0.252,-0.2067 0.362,-0.3337 0.1106,-0.1264 0.2092,-0.2695 0.2951,-0.4277 0.0862,-0.1585 0.1599,-0.3319 0.2205,-0.5185 0.0615,-0.1876 0.108,-0.3911 0.1386,-0.6094 z m 1.5588,-0.697 c 0,-0.3096 -0.0221,-0.6067 -0.0655,-0.8901 l -5e-4,-3e-4 c -0.044,-0.2852 -0.1103,-0.5576 -0.1985,-0.8158 -0.0884,-0.2597 -0.1981,-0.5023 -0.3279,-0.726 -0.1301,-0.2245 -0.2818,-0.4317 -0.453,-0.6196 l -3e-4,3e-4 c -0.1712,-0.1891 -0.362,-0.3575 -0.5717,-0.504 -0.2098,-0.1466 -0.4397,-0.273 -0.688,-0.3773 l -3e-4,-3e-4 c -0.2483,-0.1038 -0.5142,-0.1817 -0.7971,-0.2339 -0.2812,-0.0516 -0.5788,-0.0776 -0.8918,-0.0776 -0.3135,0 -0.6114,0.0263 -0.8932,0.0779 -0.282,0.0522 -0.5479,0.1304 -0.7954,0.2336 l -3e-4,3e-4 c -0.2486,0.1043 -0.4782,0.2307 -0.6879,0.3773 -0.2101,0.1465 -0.4008,0.3149 -0.5721,0.504 l -2e-4,-3e-4 c -0.1707,0.1873 -0.3215,0.3943 -0.451,0.6179 -0.1293,0.224 -0.239,0.4675 -0.3277,0.7277 -0.0885,0.2588 -0.1554,0.5318 -0.1996,0.8175 -0.0445,0.2852 -0.0669,0.5819 -0.0669,0.8887 0,0.3067 0.0224,0.6034 0.0669,0.8886 0.0442,0.2857 0.1111,0.5587 0.1996,0.8175 0.0887,0.2602 0.1984,0.5037 0.3277,0.7277 0.1295,0.2236 0.2803,0.4306 0.451,0.6179 l 2e-4,-3e-4 c 0.1713,0.1891 0.362,0.3575 0.5721,0.504 0.2097,0.1469 0.4393,0.273 0.6879,0.3773 l 3e-4,3e-4 c 0.2475,0.1032 0.5134,0.1814 0.7954,0.2336 0.2818,0.0516 0.5797,0.078 0.8932,0.078 0.313,0 0.6106,-0.0261 0.8918,-0.0777 0.2829,-0.0522 0.5488,-0.1301 0.7971,-0.2339 l 3e-4,-3e-4 c 0.2483,-0.1043 0.4782,-0.2304 0.688,-0.3773 0.2097,-0.1465 0.4005,-0.3149 0.5717,-0.504 l 3e-4,3e-4 c 0.1712,-0.1879 0.3229,-0.3951 0.453,-0.6196 0.1298,-0.2237 0.2395,-0.4663 0.3279,-0.726 0.0882,-0.2582 0.1545,-0.5306 0.1985,-0.8158 l 5e-4,-3e-4 c 0.0434,-0.2834 0.0655,-0.5802 0.0655,-0.89 z m -0.2786,-0.8578 h -6e-4 c 0.0419,0.2735 0.0632,0.5598 0.0632,0.8578 0,0.2982 -0.0213,0.5842 -0.0632,0.8577 h 6e-4 c -0.042,0.2713 -0.1055,0.5315 -0.19,0.7793 -0.0836,0.2454 -0.1876,0.475 -0.3104,0.6868 -0.1227,0.2117 -0.265,0.4065 -0.4257,0.5828 v 6e-4 c -0.1599,0.1766 -0.339,0.3345 -0.5358,0.4719 -0.1967,0.1378 -0.4133,0.2569 -0.648,0.3552 v -3e-4 c -0.2341,0.0978 -0.4855,0.1718 -0.7528,0.2208 -0.2668,0.0491 -0.5514,0.0738 -0.8533,0.0738 -0.3021,0 -0.5873,-0.025 -0.8546,-0.074 -0.2665,-0.0491 -0.5176,-0.1231 -0.7512,-0.2206 v 3e-4 c -0.235,-0.0983 -0.4513,-0.2174 -0.648,-0.3552 -0.1973,-0.1377 -0.3762,-0.2953 -0.536,-0.4719 v -6e-4 c -0.1599,-0.1755 -0.3016,-0.3702 -0.4238,-0.5811 -0.1225,-0.212 -0.2262,-0.4425 -0.3101,-0.6885 -0.0848,-0.2484 -0.1488,-0.5094 -0.1911,-0.7813 -0.0422,-0.2707 -0.0635,-0.5564 -0.0635,-0.8557 0,-0.2994 0.0213,-0.5851 0.0635,-0.8558 0.0423,-0.2719 0.1063,-0.5329 0.1911,-0.7813 0.0839,-0.246 0.1876,-0.4765 0.3101,-0.6885 0.1222,-0.2109 0.2639,-0.4056 0.4238,-0.5811 v -6e-4 c 0.1598,-0.1766 0.3387,-0.3342 0.536,-0.4719 0.1967,-0.1375 0.413,-0.2568 0.648,-0.3552 v 3e-4 c 0.2336,-0.0975 0.4847,-0.1715 0.7512,-0.2206 0.2673,-0.049 0.5525,-0.0739 0.8546,-0.0739 0.3019,0 0.5865,0.0246 0.8533,0.0737 0.2673,0.049 0.5187,0.123 0.7528,0.2208 v -3e-4 c 0.235,0.0986 0.4513,0.2177 0.648,0.3552 0.1968,0.1375 0.3759,0.2953 0.5358,0.4719 v 6e-4 c 0.1607,0.1763 0.303,0.3711 0.4257,0.5828 0.1228,0.2118 0.2268,0.4414 0.3104,0.6868 0.0845,0.2478 0.148,0.508 0.19,0.7793 z m 5.957,1.1939 c 0.2885,-0.4115 0.549,-0.7976 0.7801,-1.1568 0.1576,-0.2446 0.3033,-0.4796 0.4371,-0.7044 -0.0153,0.362 -0.0275,0.6854 -0.0366,0.9706 -0.0122,0.3827 -0.0184,0.6911 -0.0184,0.9247 v 3.6076 0.108 h 0.108 1.4644 0.108 v -0.108 -7.9679 -0.108 h -0.108 -1.5313 -0.0553 l -0.0326,0.0456 -2.6011,3.6686 c -0.2304,0.3198 -0.464,0.6645 -0.7004,1.0324 -0.1789,0.2789 -0.3594,0.5706 -0.5411,0.8742 0.015,-0.339 0.0272,-0.6497 0.036,-0.9314 0.0119,-0.3836 0.0184,-0.7079 0.0184,-0.9718 v -3.6096 -0.108 h -0.108 -1.4641 -0.108 v 0.108 7.9679 0.108 h 0.108 1.5313 0.0555 l 0.0323,-0.0456 2.6255,-3.7032 z m 0.5986,-1.273 c -0.2335,0.3628 -0.492,0.7461 -0.7744,1.1495 l -3e-4,-3e-4 -2.5931,3.6575 h -1.3677 v -7.7519 h 1.2481 v 3.5016 c 0,0.2713 -0.0063,0.5933 -0.0179,0.965 -0.0116,0.3744 -0.0297,0.8075 -0.053,1.2977 l -0.0054,0.1131 h 0.1131 0.0346 0.0621 L 77.997,107.03 c 0.246,-0.4207 0.4861,-0.8136 0.7194,-1.177 0.2356,-0.3668 0.4674,-0.7086 0.6942,-1.0233 l 6e-4,-5e-4 2.5687,-3.623 h 1.3678 v 7.7519 h -1.2484 v -3.4996 c 0,-0.2404 0.0059,-0.5468 0.0178,-0.9179 0.0117,-0.3747 0.0295,-0.822 0.053,-1.3411 l 0.0054,-0.1125 h -0.1131 -0.0343 -0.0623 l -0.0312,0.0547 c -0.1777,0.3127 -0.383,0.6497 -0.6149,1.0097"
       style="fill:#ffffff;fill-opacity:1;fill-rule:nonzero;stroke:none"
       transform="matrix(0.72451915,0,0,-0.72451915,-8.9285961,103.84476)"
       clip-path="url(#clipPath8-0)" />
    <path
       id="path4013-5"
       d="m 24.5018,124.4628 7.09,17.3403 h 1.1155 l 7.1166,-17.3403 h -1.2568 l -2.4874,6.1608 H 28.224 l -2.4786,-6.1608 z m 11.1487,7.1963 -0.6594,1.673 c -1.4473,3.5895 -2.3723,5.9615 -2.7884,7.1212 h -0.053 c -0.354,-0.987 -0.9383,-2.452 -1.7484,-4.3948 -0.252,-0.5976 -0.8496,-2.0625 -1.7878,-4.3994 z"
       style="fill:#ffffff;fill-opacity:1;fill-rule:evenodd;stroke:none"
       transform="matrix(0.72451915,0,0,-0.72451915,-8.9285961,103.84476)"
       clip-path="url(#clipPath4014-9)" />
    <path
       id="path4015-8"
       d="m 26.0294,115.302 10.9403,15.3173 H 26.2638 v 1.0358 h 12.0116 v -0.947 L 27.3039,115.3505 H 38.3771 V 114.315 H 26.0294 Z"
       style="fill:#ffffff;fill-opacity:1;fill-rule:evenodd;stroke:none"
       transform="matrix(0.72451915,0,0,-0.72451915,-8.9285961,103.84476)"
       clip-path="url(#clipPath4016-91)" />
  </g>
</svg>
